<mxfile host="app.diagrams.net" agent="Mozilla/5.0 (Windows NT 10.0; Win64; x64) AppleWebKit/537.36 (KHTML, like Gecko) Chrome/135.0.0.0 Safari/537.36" version="26.2.13">
  <diagram id="C5RBs43oDa-KdzZeNtuy" name="Page-1">
    <mxGraphModel dx="2550" dy="873" grid="1" gridSize="10" guides="1" tooltips="1" connect="1" arrows="1" fold="1" page="1" pageScale="1" pageWidth="827" pageHeight="1169" background="none" math="0" shadow="0">
      <root>
        <mxCell id="WIyWlLk6GJQsqaUBKTNV-0" />
        <mxCell id="WIyWlLk6GJQsqaUBKTNV-1" parent="WIyWlLk6GJQsqaUBKTNV-0" />
        <mxCell id="MrbrfN5ro4CkiEmwJ0JB-87" value="" style="swimlane;startSize=0;strokeColor=#666666;glass=1;strokeWidth=8;fillColor=#f5f5f5;fontColor=#333333;fontSize=14;" vertex="1" parent="WIyWlLk6GJQsqaUBKTNV-1">
          <mxGeometry x="-710" y="70" width="1760" height="2460" as="geometry" />
        </mxCell>
        <mxCell id="h-SIncH39Dyfa8a2vWrz-67" value="" style="endArrow=diamondThin;endFill=1;endSize=24;html=1;rounded=0;fontSize=14;" parent="MrbrfN5ro4CkiEmwJ0JB-87" source="0EwmHbK1_g-h2IZMiYUe-106" target="0EwmHbK1_g-h2IZMiYUe-135" edge="1">
          <mxGeometry width="160" relative="1" as="geometry">
            <mxPoint x="328.59" y="882.57" as="sourcePoint" />
            <mxPoint x="488.59" y="882.57" as="targetPoint" />
            <Array as="points">
              <mxPoint x="718.5899999999999" y="1010" />
              <mxPoint x="290" y="1010" />
            </Array>
          </mxGeometry>
        </mxCell>
        <mxCell id="h-SIncH39Dyfa8a2vWrz-68" value="&lt;font&gt;1&lt;/font&gt;" style="edgeLabel;html=1;align=center;verticalAlign=middle;resizable=0;points=[];fontSize=14;" parent="h-SIncH39Dyfa8a2vWrz-67" connectable="0" vertex="1">
          <mxGeometry x="-0.829" relative="1" as="geometry">
            <mxPoint x="2" y="-1" as="offset" />
          </mxGeometry>
        </mxCell>
        <mxCell id="h-SIncH39Dyfa8a2vWrz-69" value="&lt;font&gt;1&lt;/font&gt;" style="edgeLabel;html=1;align=center;verticalAlign=middle;resizable=0;points=[];fontSize=14;" parent="h-SIncH39Dyfa8a2vWrz-67" connectable="0" vertex="1">
          <mxGeometry x="0.9019" relative="1" as="geometry">
            <mxPoint x="10" y="6" as="offset" />
          </mxGeometry>
        </mxCell>
        <mxCell id="0EwmHbK1_g-h2IZMiYUe-63" value="HUD" style="swimlane;fontStyle=1;align=center;verticalAlign=top;childLayout=stackLayout;horizontal=1;startSize=26;horizontalStack=0;resizeParent=1;resizeParentMax=0;resizeLast=0;collapsible=1;marginBottom=0;whiteSpace=wrap;html=1;labelBackgroundColor=none;fontSize=14;" parent="MrbrfN5ro4CkiEmwJ0JB-87" vertex="1">
          <mxGeometry x="30" y="1577.94" width="260" height="220" as="geometry" />
        </mxCell>
        <mxCell id="0EwmHbK1_g-h2IZMiYUe-64" value="&lt;div&gt;- __player : pygame.sprite.GroupSingle&lt;/div&gt;&lt;div&gt;- __score : int&lt;/div&gt;&lt;div&gt;- __health_bar_width : int&lt;/div&gt;&lt;div&gt;- __health_bar_height : int&lt;/div&gt;&lt;div&gt;- __ability_bar_width : int&lt;/div&gt;&lt;div&gt;- __ability_bar_height : int&lt;/div&gt;&lt;div&gt;- __ability_cooldown : int&lt;/div&gt;" style="text;strokeColor=none;fillColor=none;align=left;verticalAlign=top;spacingLeft=4;spacingRight=4;overflow=hidden;rotatable=0;points=[[0,0.5],[1,0.5]];portConstraint=eastwest;whiteSpace=wrap;html=1;labelBackgroundColor=none;fontSize=14;" parent="0EwmHbK1_g-h2IZMiYUe-63" vertex="1">
          <mxGeometry y="26" width="260" height="134" as="geometry" />
        </mxCell>
        <mxCell id="0EwmHbK1_g-h2IZMiYUe-65" value="" style="line;strokeWidth=1;fillColor=none;align=left;verticalAlign=middle;spacingTop=-1;spacingLeft=3;spacingRight=3;rotatable=0;labelPosition=right;points=[];portConstraint=eastwest;labelBackgroundColor=none;fontSize=14;" parent="0EwmHbK1_g-h2IZMiYUe-63" vertex="1">
          <mxGeometry y="160" width="260" height="8" as="geometry" />
        </mxCell>
        <mxCell id="0EwmHbK1_g-h2IZMiYUe-66" value="&lt;div&gt;+ draw(screen : pygame.display) : void&lt;/div&gt;&lt;div&gt;+ add_score(points : int) : void&amp;nbsp;&lt;/div&gt;" style="text;strokeColor=none;fillColor=none;align=left;verticalAlign=top;spacingLeft=4;spacingRight=4;overflow=hidden;rotatable=0;points=[[0,0.5],[1,0.5]];portConstraint=eastwest;whiteSpace=wrap;html=1;labelBackgroundColor=none;fontSize=14;" parent="0EwmHbK1_g-h2IZMiYUe-63" vertex="1">
          <mxGeometry y="168" width="260" height="52" as="geometry" />
        </mxCell>
        <mxCell id="0EwmHbK1_g-h2IZMiYUe-71" value="AbstractAbility" style="swimlane;fontStyle=1;align=center;verticalAlign=top;childLayout=stackLayout;horizontal=1;startSize=26;horizontalStack=0;resizeParent=1;resizeParentMax=0;resizeLast=0;collapsible=1;marginBottom=0;whiteSpace=wrap;html=1;labelBackgroundColor=none;dashed=1;dashPattern=8 8;fontSize=14;" parent="MrbrfN5ro4CkiEmwJ0JB-87" vertex="1">
          <mxGeometry x="1106.09" y="20" width="360" height="130" as="geometry" />
        </mxCell>
        <mxCell id="0EwmHbK1_g-h2IZMiYUe-72" value="&lt;div&gt;# _speed: int&lt;/div&gt;&lt;div&gt;# _damage: int&lt;/div&gt;&lt;div&gt;# _lifetime: float&lt;/div&gt;" style="text;strokeColor=none;fillColor=none;align=left;verticalAlign=top;spacingLeft=4;spacingRight=4;overflow=hidden;rotatable=0;points=[[0,0.5],[1,0.5]];portConstraint=eastwest;whiteSpace=wrap;html=1;labelBackgroundColor=none;fontSize=14;" parent="0EwmHbK1_g-h2IZMiYUe-71" vertex="1">
          <mxGeometry y="26" width="360" height="54" as="geometry" />
        </mxCell>
        <mxCell id="0EwmHbK1_g-h2IZMiYUe-73" value="" style="line;strokeWidth=1;fillColor=none;align=left;verticalAlign=middle;spacingTop=-1;spacingLeft=3;spacingRight=3;rotatable=0;labelPosition=right;points=[];portConstraint=eastwest;labelBackgroundColor=none;dashed=1;dashPattern=8 8;fontSize=14;" parent="0EwmHbK1_g-h2IZMiYUe-71" vertex="1">
          <mxGeometry y="80" width="360" height="8" as="geometry" />
        </mxCell>
        <mxCell id="0EwmHbK1_g-h2IZMiYUe-74" value="+ &lt;font style=&quot;color: light-dark(rgb(0, 0, 0), rgb(255, 255, 255));&quot;&gt;damage()&lt;/font&gt;: int&lt;div&gt;+ generate(dict[float], float, pygame.sprite.Group) : bool&lt;/div&gt;" style="text;strokeColor=none;fillColor=none;align=left;verticalAlign=top;spacingLeft=4;spacingRight=4;overflow=hidden;rotatable=0;points=[[0,0.5],[1,0.5]];portConstraint=eastwest;whiteSpace=wrap;html=1;labelBackgroundColor=none;fontSize=14;" parent="0EwmHbK1_g-h2IZMiYUe-71" vertex="1">
          <mxGeometry y="88" width="360" height="42" as="geometry" />
        </mxCell>
        <mxCell id="0EwmHbK1_g-h2IZMiYUe-75" value="MissileBarrage" style="swimlane;fontStyle=1;align=center;verticalAlign=top;childLayout=stackLayout;horizontal=1;startSize=26;horizontalStack=0;resizeParent=1;resizeParentMax=0;resizeLast=0;collapsible=1;marginBottom=0;whiteSpace=wrap;html=1;labelBackgroundColor=none;fontSize=14;" parent="MrbrfN5ro4CkiEmwJ0JB-87" vertex="1">
          <mxGeometry x="828.5899999999999" y="330" width="250" height="200" as="geometry" />
        </mxCell>
        <mxCell id="0EwmHbK1_g-h2IZMiYUe-76" value="&lt;div&gt;- __num_missiles : int&lt;/div&gt;&lt;div&gt;- __angle_spread : int&lt;/div&gt;&lt;div&gt;- __explosion_radius : int&lt;/div&gt;" style="text;strokeColor=none;fillColor=none;align=left;verticalAlign=top;spacingLeft=4;spacingRight=4;overflow=hidden;rotatable=0;points=[[0,0.5],[1,0.5]];portConstraint=eastwest;whiteSpace=wrap;html=1;labelBackgroundColor=none;fontSize=14;" parent="0EwmHbK1_g-h2IZMiYUe-75" vertex="1">
          <mxGeometry y="26" width="250" height="64" as="geometry" />
        </mxCell>
        <mxCell id="0EwmHbK1_g-h2IZMiYUe-77" value="" style="line;strokeWidth=1;fillColor=none;align=left;verticalAlign=middle;spacingTop=-1;spacingLeft=3;spacingRight=3;rotatable=0;labelPosition=right;points=[];portConstraint=eastwest;labelBackgroundColor=none;fontSize=14;" parent="0EwmHbK1_g-h2IZMiYUe-75" vertex="1">
          <mxGeometry y="90" width="250" height="8" as="geometry" />
        </mxCell>
        <mxCell id="0EwmHbK1_g-h2IZMiYUe-78" value="&lt;div&gt;- __draw_explosion(radius : int, color : tuple[int]) : pygame.Surface&lt;/div&gt;&lt;div&gt;+ create_explosion(missile : &lt;font style=&quot;color: light-dark(rgb(0, 0, 0), rgb(255, 255, 255));&quot;&gt;ProjectileAbility&lt;/font&gt;&lt;font style=&quot;color: light-dark(rgb(0, 0, 0), rgb(255, 255, 255));&quot;&gt;, ability_projectiles : &lt;/font&gt;pygame.sprite.Group) : void&lt;/div&gt;" style="text;strokeColor=none;fillColor=none;align=left;verticalAlign=top;spacingLeft=4;spacingRight=4;overflow=hidden;rotatable=0;points=[[0,0.5],[1,0.5]];portConstraint=eastwest;whiteSpace=wrap;html=1;labelBackgroundColor=none;fontSize=14;" parent="0EwmHbK1_g-h2IZMiYUe-75" vertex="1">
          <mxGeometry y="98" width="250" height="102" as="geometry" />
        </mxCell>
        <mxCell id="0EwmHbK1_g-h2IZMiYUe-79" value="LaserBeam" style="swimlane;fontStyle=1;align=center;verticalAlign=top;childLayout=stackLayout;horizontal=1;startSize=26;horizontalStack=0;resizeParent=1;resizeParentMax=0;resizeLast=0;collapsible=1;marginBottom=0;whiteSpace=wrap;html=1;labelBackgroundColor=none;fontSize=14;" parent="MrbrfN5ro4CkiEmwJ0JB-87" vertex="1">
          <mxGeometry x="1091.09" y="330" width="390" height="220" as="geometry" />
        </mxCell>
        <mxCell id="0EwmHbK1_g-h2IZMiYUe-80" value="&lt;div&gt;- __width_laser : int&lt;/div&gt;&lt;div&gt;- __laser_color : tuple[int]&lt;/div&gt;&lt;div&gt;- __glow_color : tuple[int]&lt;/div&gt;" style="text;strokeColor=none;fillColor=none;align=left;verticalAlign=top;spacingLeft=4;spacingRight=4;overflow=hidden;rotatable=0;points=[[0,0.5],[1,0.5]];portConstraint=eastwest;whiteSpace=wrap;html=1;labelBackgroundColor=none;fontSize=14;" parent="0EwmHbK1_g-h2IZMiYUe-79" vertex="1">
          <mxGeometry y="26" width="390" height="64" as="geometry" />
        </mxCell>
        <mxCell id="0EwmHbK1_g-h2IZMiYUe-81" value="" style="line;strokeWidth=1;fillColor=none;align=left;verticalAlign=middle;spacingTop=-1;spacingLeft=3;spacingRight=3;rotatable=0;labelPosition=right;points=[];portConstraint=eastwest;labelBackgroundColor=none;fontSize=14;" parent="0EwmHbK1_g-h2IZMiYUe-79" vertex="1">
          <mxGeometry y="90" width="390" height="8" as="geometry" />
        </mxCell>
        <mxCell id="0EwmHbK1_g-h2IZMiYUe-82" value="&lt;div&gt;- __create_laser_segments(start.pos : vector2[float], direction : vector2[float], beams : pygame.sprite.Group) : void&lt;/div&gt;&lt;div&gt;- __create_laser_surface(length : float) : pygame.Surface&lt;/div&gt;&lt;div&gt;- __draw_hit_effect(radius : int) : pygame.Surface&lt;/div&gt;&lt;div&gt;+ create_hit_effect(laser :&amp;nbsp;&lt;font style=&quot;color: light-dark(rgb(0, 0, 0), rgb(255, 255, 255));&quot;&gt;ProjectileAbility&lt;/font&gt;, , ability_projectiles : pygame.sprite.Group) : void&lt;/div&gt;" style="text;strokeColor=none;fillColor=none;align=left;verticalAlign=top;spacingLeft=4;spacingRight=4;overflow=hidden;rotatable=0;points=[[0,0.5],[1,0.5]];portConstraint=eastwest;whiteSpace=wrap;html=1;labelBackgroundColor=none;fontSize=14;" parent="0EwmHbK1_g-h2IZMiYUe-79" vertex="1">
          <mxGeometry y="98" width="390" height="122" as="geometry" />
        </mxCell>
        <mxCell id="0EwmHbK1_g-h2IZMiYUe-83" value="CriticalShot" style="swimlane;fontStyle=1;align=center;verticalAlign=top;childLayout=stackLayout;horizontal=1;startSize=26;horizontalStack=0;resizeParent=1;resizeParentMax=0;resizeLast=0;collapsible=1;marginBottom=0;whiteSpace=wrap;html=1;labelBackgroundColor=none;fontSize=14;" parent="MrbrfN5ro4CkiEmwJ0JB-87" vertex="1">
          <mxGeometry x="1490" y="330" width="260" height="80" as="geometry" />
        </mxCell>
        <mxCell id="0EwmHbK1_g-h2IZMiYUe-85" value="" style="line;strokeWidth=1;fillColor=none;align=left;verticalAlign=middle;spacingTop=-1;spacingLeft=3;spacingRight=3;rotatable=0;labelPosition=right;points=[];portConstraint=eastwest;labelBackgroundColor=none;fontSize=14;" parent="0EwmHbK1_g-h2IZMiYUe-83" vertex="1">
          <mxGeometry y="26" width="260" height="8" as="geometry" />
        </mxCell>
        <mxCell id="0EwmHbK1_g-h2IZMiYUe-86" value="&lt;div&gt;- __apply_glow_effect(pygame.Surface) : pygame.Surface&lt;/div&gt;" style="text;strokeColor=none;fillColor=none;align=left;verticalAlign=top;spacingLeft=4;spacingRight=4;overflow=hidden;rotatable=0;points=[[0,0.5],[1,0.5]];portConstraint=eastwest;whiteSpace=wrap;html=1;labelBackgroundColor=none;fontSize=14;" parent="0EwmHbK1_g-h2IZMiYUe-83" vertex="1">
          <mxGeometry y="34" width="260" height="46" as="geometry" />
        </mxCell>
        <mxCell id="0EwmHbK1_g-h2IZMiYUe-103" value="ProjectileGenerator" style="swimlane;fontStyle=1;align=center;verticalAlign=top;childLayout=stackLayout;horizontal=1;startSize=26;horizontalStack=0;resizeParent=1;resizeParentMax=0;resizeLast=0;collapsible=1;marginBottom=0;whiteSpace=wrap;html=1;labelBackgroundColor=none;fontSize=14;" parent="MrbrfN5ro4CkiEmwJ0JB-87" vertex="1">
          <mxGeometry x="672.76" y="590" width="260" height="190" as="geometry" />
        </mxCell>
        <mxCell id="0EwmHbK1_g-h2IZMiYUe-104" value="&lt;div&gt;- __projectile_speed : int&lt;/div&gt;&lt;div&gt;- __frequency : int&lt;/div&gt;&lt;div&gt;- __projectile_damage : int&lt;/div&gt;&lt;div&gt;- __projectile_type : str&lt;/div&gt;&lt;div&gt;- __time_without_generation : float&lt;/div&gt;" style="text;strokeColor=none;fillColor=none;align=left;verticalAlign=top;spacingLeft=4;spacingRight=4;overflow=hidden;rotatable=0;points=[[0,0.5],[1,0.5]];portConstraint=eastwest;whiteSpace=wrap;html=1;labelBackgroundColor=none;fontSize=14;" parent="0EwmHbK1_g-h2IZMiYUe-103" vertex="1">
          <mxGeometry y="26" width="260" height="94" as="geometry" />
        </mxCell>
        <mxCell id="0EwmHbK1_g-h2IZMiYUe-105" value="" style="line;strokeWidth=1;fillColor=none;align=left;verticalAlign=middle;spacingTop=-1;spacingLeft=3;spacingRight=3;rotatable=0;labelPosition=right;points=[];portConstraint=eastwest;labelBackgroundColor=none;fontSize=14;" parent="0EwmHbK1_g-h2IZMiYUe-103" vertex="1">
          <mxGeometry y="120" width="260" height="8" as="geometry" />
        </mxCell>
        <mxCell id="0EwmHbK1_g-h2IZMiYUe-106" value="+ generate(origin : pygame.Vector2[int], target : pygame.Vector2[int], dt : float, projectiles : pygame.sprite.Group): void" style="text;strokeColor=none;fillColor=none;align=left;verticalAlign=top;spacingLeft=4;spacingRight=4;overflow=hidden;rotatable=0;points=[[0,0.5],[1,0.5]];portConstraint=eastwest;whiteSpace=wrap;html=1;labelBackgroundColor=none;fontSize=14;" parent="0EwmHbK1_g-h2IZMiYUe-103" vertex="1">
          <mxGeometry y="128" width="260" height="62" as="geometry" />
        </mxCell>
        <mxCell id="0EwmHbK1_g-h2IZMiYUe-111" value="Cyborg" style="swimlane;fontStyle=1;align=center;verticalAlign=top;childLayout=stackLayout;horizontal=1;startSize=26;horizontalStack=0;resizeParent=1;resizeParentMax=0;resizeLast=0;collapsible=1;marginBottom=0;whiteSpace=wrap;html=1;labelBackgroundColor=none;fontSize=14;" parent="MrbrfN5ro4CkiEmwJ0JB-87" vertex="1">
          <mxGeometry x="1100" y="1091" width="300" height="130" as="geometry" />
        </mxCell>
        <mxCell id="0EwmHbK1_g-h2IZMiYUe-112" value="# _time_duration_ability : int" style="text;strokeColor=none;fillColor=none;align=left;verticalAlign=top;spacingLeft=4;spacingRight=4;overflow=hidden;rotatable=0;points=[[0,0.5],[1,0.5]];portConstraint=eastwest;whiteSpace=wrap;html=1;labelBackgroundColor=none;fontSize=14;" parent="0EwmHbK1_g-h2IZMiYUe-111" vertex="1">
          <mxGeometry y="26" width="300" height="26" as="geometry" />
        </mxCell>
        <mxCell id="0EwmHbK1_g-h2IZMiYUe-113" value="" style="line;strokeWidth=1;fillColor=none;align=left;verticalAlign=middle;spacingTop=-1;spacingLeft=3;spacingRight=3;rotatable=0;labelPosition=right;points=[];portConstraint=eastwest;labelBackgroundColor=none;fontSize=14;" parent="0EwmHbK1_g-h2IZMiYUe-111" vertex="1">
          <mxGeometry y="52" width="300" height="8" as="geometry" />
        </mxCell>
        <mxCell id="0EwmHbK1_g-h2IZMiYUe-114" value="+ choose_ability() :&amp;nbsp;&lt;span style=&quot;color: light-dark(rgb(0, 0, 0), rgb(255, 255, 255)); background-color: transparent;&quot;&gt;LaserBeam&lt;/span&gt;&lt;div&gt;&lt;span style=&quot;background-color: transparent;&quot;&gt;&lt;div&gt;# _compute_cooldown_ability(dt : float) : void&lt;/div&gt;&lt;div&gt;# _compute_duration_ability(dt : float) : void&lt;/div&gt;&lt;div style=&quot;color: light-dark(rgb(0, 0, 0), rgb(255, 255, 255));&quot;&gt;&lt;br&gt;&lt;/div&gt;&lt;/span&gt;&lt;/div&gt;" style="text;strokeColor=none;fillColor=none;align=left;verticalAlign=top;spacingLeft=4;spacingRight=4;overflow=hidden;rotatable=0;points=[[0,0.5],[1,0.5]];portConstraint=eastwest;whiteSpace=wrap;html=1;labelBackgroundColor=none;fontSize=14;" parent="0EwmHbK1_g-h2IZMiYUe-111" vertex="1">
          <mxGeometry y="60" width="300" height="70" as="geometry" />
        </mxCell>
        <mxCell id="0EwmHbK1_g-h2IZMiYUe-119" value="Rain" style="swimlane;fontStyle=1;align=center;verticalAlign=top;childLayout=stackLayout;horizontal=1;startSize=26;horizontalStack=0;resizeParent=1;resizeParentMax=0;resizeLast=0;collapsible=1;marginBottom=0;whiteSpace=wrap;html=1;labelBackgroundColor=none;fontSize=14;" parent="MrbrfN5ro4CkiEmwJ0JB-87" vertex="1">
          <mxGeometry x="1410" y="1091" width="270" height="120" as="geometry" />
        </mxCell>
        <mxCell id="0EwmHbK1_g-h2IZMiYUe-121" value="" style="line;strokeWidth=1;fillColor=none;align=left;verticalAlign=middle;spacingTop=-1;spacingLeft=3;spacingRight=3;rotatable=0;labelPosition=right;points=[];portConstraint=eastwest;labelBackgroundColor=none;fontSize=14;" parent="0EwmHbK1_g-h2IZMiYUe-119" vertex="1">
          <mxGeometry y="26" width="270" height="8" as="geometry" />
        </mxCell>
        <mxCell id="0EwmHbK1_g-h2IZMiYUe-122" value="+ choose_ability() : CriticalShot&lt;div&gt;&lt;span style=&quot;background-color: transparent;&quot;&gt;&lt;div&gt;# _compute_cooldown_ability(dt :&amp;nbsp;&lt;span style=&quot;background-color: transparent; color: light-dark(rgb(0, 0, 0), rgb(255, 255, 255));&quot;&gt;float) : void&lt;/span&gt;&lt;/div&gt;&lt;div&gt;# _compute_duration_ability(dt:float): void&lt;/div&gt;&lt;div style=&quot;color: light-dark(rgb(0, 0, 0), rgb(255, 255, 255));&quot;&gt;&lt;br&gt;&lt;/div&gt;&lt;/span&gt;&lt;/div&gt;" style="text;strokeColor=none;fillColor=none;align=left;verticalAlign=top;spacingLeft=4;spacingRight=4;overflow=hidden;rotatable=0;points=[[0,0.5],[1,0.5]];portConstraint=eastwest;whiteSpace=wrap;html=1;labelBackgroundColor=none;fontSize=14;" parent="0EwmHbK1_g-h2IZMiYUe-119" vertex="1">
          <mxGeometry y="34" width="270" height="86" as="geometry" />
        </mxCell>
        <mxCell id="0EwmHbK1_g-h2IZMiYUe-127" value="TankEnemy" style="swimlane;fontStyle=1;align=center;verticalAlign=top;childLayout=stackLayout;horizontal=1;startSize=26;horizontalStack=0;resizeParent=1;resizeParentMax=0;resizeLast=0;collapsible=1;marginBottom=0;whiteSpace=wrap;html=1;labelBackgroundColor=none;fontSize=14;" parent="MrbrfN5ro4CkiEmwJ0JB-87" vertex="1">
          <mxGeometry x="375.76" y="1091" width="200" height="58" as="geometry" />
        </mxCell>
        <mxCell id="0EwmHbK1_g-h2IZMiYUe-128" value="- __tiime_since_last_shot : int" style="text;strokeColor=none;fillColor=none;align=left;verticalAlign=top;spacingLeft=4;spacingRight=4;overflow=hidden;rotatable=0;points=[[0,0.5],[1,0.5]];portConstraint=eastwest;whiteSpace=wrap;html=1;labelBackgroundColor=none;fontSize=14;" parent="0EwmHbK1_g-h2IZMiYUe-127" vertex="1">
          <mxGeometry y="26" width="200" height="24" as="geometry" />
        </mxCell>
        <mxCell id="0EwmHbK1_g-h2IZMiYUe-129" value="" style="line;strokeWidth=1;fillColor=none;align=left;verticalAlign=middle;spacingTop=-1;spacingLeft=3;spacingRight=3;rotatable=0;labelPosition=right;points=[];portConstraint=eastwest;labelBackgroundColor=none;fontSize=14;" parent="0EwmHbK1_g-h2IZMiYUe-127" vertex="1">
          <mxGeometry y="50" width="200" height="8" as="geometry" />
        </mxCell>
        <mxCell id="0EwmHbK1_g-h2IZMiYUe-131" value="WavyEnemy" style="swimlane;fontStyle=1;align=center;verticalAlign=top;childLayout=stackLayout;horizontal=1;startSize=26;horizontalStack=0;resizeParent=1;resizeParentMax=0;resizeLast=0;collapsible=1;marginBottom=0;whiteSpace=wrap;html=1;labelBackgroundColor=none;fontSize=14;" parent="MrbrfN5ro4CkiEmwJ0JB-87" vertex="1">
          <mxGeometry x="10" y="1091" width="190" height="148" as="geometry" />
        </mxCell>
        <mxCell id="0EwmHbK1_g-h2IZMiYUe-132" value="+ field: type&lt;div&gt;- __timer : int&lt;/div&gt;&lt;div&gt;- __amplitude : int&lt;/div&gt;&lt;div&gt;- __angular_frequency : int&lt;/div&gt;&lt;div&gt;- __projectile_generator : &lt;font style=&quot;color: light-dark(rgb(0, 0, 0), rgb(255, 255, 255));&quot;&gt;ProjectileGenerator&lt;/font&gt;&lt;/div&gt;" style="text;strokeColor=none;fillColor=none;align=left;verticalAlign=top;spacingLeft=4;spacingRight=4;overflow=hidden;rotatable=0;points=[[0,0.5],[1,0.5]];portConstraint=eastwest;whiteSpace=wrap;html=1;labelBackgroundColor=none;fontSize=14;" parent="0EwmHbK1_g-h2IZMiYUe-131" vertex="1">
          <mxGeometry y="26" width="190" height="114" as="geometry" />
        </mxCell>
        <mxCell id="0EwmHbK1_g-h2IZMiYUe-133" value="" style="line;strokeWidth=1;fillColor=none;align=left;verticalAlign=middle;spacingTop=-1;spacingLeft=3;spacingRight=3;rotatable=0;labelPosition=right;points=[];portConstraint=eastwest;labelBackgroundColor=none;fontSize=14;" parent="0EwmHbK1_g-h2IZMiYUe-131" vertex="1">
          <mxGeometry y="140" width="190" height="8" as="geometry" />
        </mxCell>
        <mxCell id="0EwmHbK1_g-h2IZMiYUe-135" value="LinearEnemy" style="swimlane;fontStyle=1;align=center;verticalAlign=top;childLayout=stackLayout;horizontal=1;startSize=26;horizontalStack=0;resizeParent=1;resizeParentMax=0;resizeLast=0;collapsible=1;marginBottom=0;whiteSpace=wrap;html=1;labelBackgroundColor=none;fontSize=14;" parent="MrbrfN5ro4CkiEmwJ0JB-87" vertex="1">
          <mxGeometry x="209.99999999999997" y="1090.9999999999998" width="160" height="76" as="geometry" />
        </mxCell>
        <mxCell id="0EwmHbK1_g-h2IZMiYUe-136" value="- __projectile_generator : &lt;font style=&quot;color: light-dark(rgb(0, 0, 0), rgb(255, 255, 255));&quot;&gt;ProjectileGenerator&lt;/font&gt;" style="text;strokeColor=none;fillColor=none;align=left;verticalAlign=top;spacingLeft=4;spacingRight=4;overflow=hidden;rotatable=0;points=[[0,0.5],[1,0.5]];portConstraint=eastwest;whiteSpace=wrap;html=1;labelBackgroundColor=none;fontSize=14;" parent="0EwmHbK1_g-h2IZMiYUe-135" vertex="1">
          <mxGeometry y="26" width="160" height="42" as="geometry" />
        </mxCell>
        <mxCell id="0EwmHbK1_g-h2IZMiYUe-137" value="" style="line;strokeWidth=1;fillColor=none;align=left;verticalAlign=middle;spacingTop=-1;spacingLeft=3;spacingRight=3;rotatable=0;labelPosition=right;points=[];portConstraint=eastwest;labelBackgroundColor=none;fontSize=14;" parent="0EwmHbK1_g-h2IZMiYUe-135" vertex="1">
          <mxGeometry y="68" width="160" height="8" as="geometry" />
        </mxCell>
        <mxCell id="0EwmHbK1_g-h2IZMiYUe-139" value="AbstractEnemy" style="swimlane;fontStyle=1;align=center;verticalAlign=top;childLayout=stackLayout;horizontal=1;startSize=26;horizontalStack=0;resizeParent=1;resizeParentMax=0;resizeLast=0;collapsible=1;marginBottom=0;whiteSpace=wrap;html=1;labelBackgroundColor=none;dashed=1;dashPattern=8 8;fontSize=14;" parent="MrbrfN5ro4CkiEmwJ0JB-87" vertex="1">
          <mxGeometry x="95.75999999999992" y="744" width="520" height="170" as="geometry" />
        </mxCell>
        <mxCell id="0EwmHbK1_g-h2IZMiYUe-140" value="&lt;div&gt;# _speed : int&lt;br&gt;&lt;div&gt;# _health_points : int&lt;/div&gt;&lt;/div&gt;" style="text;strokeColor=none;fillColor=none;align=left;verticalAlign=top;spacingLeft=4;spacingRight=4;overflow=hidden;rotatable=0;points=[[0,0.5],[1,0.5]];portConstraint=eastwest;whiteSpace=wrap;html=1;labelBackgroundColor=none;fontSize=14;" parent="0EwmHbK1_g-h2IZMiYUe-139" vertex="1">
          <mxGeometry y="26" width="520" height="44" as="geometry" />
        </mxCell>
        <mxCell id="0EwmHbK1_g-h2IZMiYUe-141" value="" style="line;strokeWidth=1;fillColor=none;align=left;verticalAlign=middle;spacingTop=-1;spacingLeft=3;spacingRight=3;rotatable=0;labelPosition=right;points=[];portConstraint=eastwest;labelBackgroundColor=none;fontSize=14;" parent="0EwmHbK1_g-h2IZMiYUe-139" vertex="1">
          <mxGeometry y="70" width="520" height="8" as="geometry" />
        </mxCell>
        <mxCell id="0EwmHbK1_g-h2IZMiYUe-142" value="&lt;div&gt;+ update(dt : float, player_projectiles : pygame.sprite.Group, ability_projectiles :&amp;nbsp;&lt;span style=&quot;background-color: transparent; color: light-dark(rgb(0, 0, 0), rgb(255, 255, 255));&quot;&gt;pygame.sprite.Group, enemy_projectiles :&amp;nbsp;&lt;/span&gt;&lt;span style=&quot;background-color: transparent; color: light-dark(rgb(0, 0, 0), rgb(255, 255, 255));&quot;&gt;pygame.sprite.Group, player :&amp;nbsp;&lt;/span&gt;&lt;span style=&quot;background-color: transparent; color: light-dark(rgb(0, 0, 0), rgb(255, 255, 255));&quot;&gt;pygame.sprite.GroupSingle&lt;/span&gt;&lt;span style=&quot;background-color: transparent; color: light-dark(rgb(0, 0, 0), rgb(255, 255, 255));&quot;&gt;, terrain :&amp;nbsp;&lt;/span&gt;&lt;span style=&quot;background-color: transparent;&quot;&gt;&lt;font style=&quot;color: light-dark(rgb(0, 0, 0), rgb(255, 255, 255));&quot;&gt;Terrain&lt;/font&gt;&lt;/span&gt;&lt;span style=&quot;background-color: transparent; color: light-dark(rgb(0, 0, 0), rgb(255, 255, 255));&quot;&gt;, speed_multiplier : float&lt;/span&gt;&lt;span style=&quot;background-color: transparent; color: light-dark(rgb(0, 0, 0), rgb(255, 255, 255));&quot;&gt;) : void&lt;/span&gt;&lt;/div&gt;&lt;div&gt;&lt;span style=&quot;background-color: transparent; color: light-dark(rgb(0, 0, 0), rgb(255, 255, 255));&quot;&gt;# _attack(dt : float, target : vector2[float], projectiles :&amp;nbsp;&lt;/span&gt;&lt;span style=&quot;background-color: transparent; color: light-dark(rgb(0, 0, 0), rgb(255, 255, 255));&quot;&gt;pygame.sprite.Group&lt;/span&gt;&lt;span style=&quot;background-color: transparent; color: light-dark(rgb(0, 0, 0), rgb(255, 255, 255));&quot;&gt;) : void&lt;/span&gt;&lt;/div&gt;&lt;div&gt;&lt;span style=&quot;background-color: transparent; color: light-dark(rgb(0, 0, 0), rgb(255, 255, 255));&quot;&gt;+ health() : int&lt;/span&gt;&lt;/div&gt;" style="text;strokeColor=none;fillColor=none;align=left;verticalAlign=top;spacingLeft=4;spacingRight=4;overflow=hidden;rotatable=0;points=[[0,0.5],[1,0.5]];portConstraint=eastwest;whiteSpace=wrap;html=1;labelBackgroundColor=none;fontSize=14;" parent="0EwmHbK1_g-h2IZMiYUe-139" vertex="1">
          <mxGeometry y="78" width="520" height="92" as="geometry" />
        </mxCell>
        <mxCell id="0EwmHbK1_g-h2IZMiYUe-152" value="Terrain" style="swimlane;fontStyle=1;align=center;verticalAlign=top;childLayout=stackLayout;horizontal=1;startSize=26;horizontalStack=0;resizeParent=1;resizeParentMax=0;resizeLast=0;collapsible=1;marginBottom=0;whiteSpace=wrap;html=1;labelBackgroundColor=none;fontSize=14;" parent="MrbrfN5ro4CkiEmwJ0JB-87" vertex="1">
          <mxGeometry x="30" y="1451.94" width="260" height="108" as="geometry" />
        </mxCell>
        <mxCell id="0EwmHbK1_g-h2IZMiYUe-153" value="&lt;div&gt;+ num_blocks_horizontal : int&lt;/div&gt;&lt;div&gt;+ num_blocks_vertical : int&lt;/div&gt;&lt;div&gt;+ width : float&lt;/div&gt;&lt;div&gt;+ height : float&lt;/div&gt;" style="text;strokeColor=none;fillColor=none;align=left;verticalAlign=top;spacingLeft=4;spacingRight=4;overflow=hidden;rotatable=0;points=[[0,0.5],[1,0.5]];portConstraint=eastwest;whiteSpace=wrap;html=1;labelBackgroundColor=none;fontSize=14;" parent="0EwmHbK1_g-h2IZMiYUe-152" vertex="1">
          <mxGeometry y="26" width="260" height="74" as="geometry" />
        </mxCell>
        <mxCell id="0EwmHbK1_g-h2IZMiYUe-154" value="" style="line;strokeWidth=1;fillColor=none;align=left;verticalAlign=middle;spacingTop=-1;spacingLeft=3;spacingRight=3;rotatable=0;labelPosition=right;points=[];portConstraint=eastwest;labelBackgroundColor=none;fontSize=14;" parent="0EwmHbK1_g-h2IZMiYUe-152" vertex="1">
          <mxGeometry y="100" width="260" height="8" as="geometry" />
        </mxCell>
        <mxCell id="h-SIncH39Dyfa8a2vWrz-3" value="Extends" style="endArrow=block;endSize=16;endFill=0;html=1;rounded=0;exitX=0.5;exitY=0;exitDx=0;exitDy=0;labelBackgroundColor=none;fontColor=default;fillColor=#1ba1e2;strokeColor=#006EAF;entryX=0.43;entryY=1.004;entryDx=0;entryDy=0;entryPerimeter=0;fontSize=14;" parent="MrbrfN5ro4CkiEmwJ0JB-87" source="0EwmHbK1_g-h2IZMiYUe-75" target="0EwmHbK1_g-h2IZMiYUe-74" edge="1">
          <mxGeometry width="160" relative="1" as="geometry">
            <mxPoint x="1305.76" y="355" as="sourcePoint" />
            <mxPoint x="1293.76" y="259" as="targetPoint" />
          </mxGeometry>
        </mxCell>
        <mxCell id="h-SIncH39Dyfa8a2vWrz-4" value="Extends" style="endArrow=block;endSize=16;endFill=0;html=1;rounded=0;labelBackgroundColor=none;fontColor=default;fillColor=#1ba1e2;strokeColor=#006EAF;fontSize=14;" parent="MrbrfN5ro4CkiEmwJ0JB-87" source="0EwmHbK1_g-h2IZMiYUe-79" target="0EwmHbK1_g-h2IZMiYUe-71" edge="1">
          <mxGeometry width="160" relative="1" as="geometry">
            <mxPoint x="1255.76" y="345" as="sourcePoint" />
            <mxPoint x="1255.76" y="195" as="targetPoint" />
          </mxGeometry>
        </mxCell>
        <mxCell id="h-SIncH39Dyfa8a2vWrz-5" value="Extends" style="endArrow=block;endSize=16;endFill=0;html=1;rounded=0;exitX=0.5;exitY=0;exitDx=0;exitDy=0;entryX=0.573;entryY=1.068;entryDx=0;entryDy=0;entryPerimeter=0;labelBackgroundColor=none;fontColor=default;fillColor=#1ba1e2;strokeColor=#006EAF;fontSize=14;" parent="MrbrfN5ro4CkiEmwJ0JB-87" source="0EwmHbK1_g-h2IZMiYUe-83" target="0EwmHbK1_g-h2IZMiYUe-74" edge="1">
          <mxGeometry width="160" relative="1" as="geometry">
            <mxPoint x="1305.76" y="355" as="sourcePoint" />
            <mxPoint x="1465.76" y="355" as="targetPoint" />
          </mxGeometry>
        </mxCell>
        <mxCell id="h-SIncH39Dyfa8a2vWrz-14" value="Extends" style="endArrow=block;endSize=16;endFill=0;html=1;rounded=0;fillColor=#1ba1e2;strokeColor=#006EAF;fontSize=14;" parent="MrbrfN5ro4CkiEmwJ0JB-87" source="0EwmHbK1_g-h2IZMiYUe-135" target="0EwmHbK1_g-h2IZMiYUe-142" edge="1">
          <mxGeometry width="160" relative="1" as="geometry">
            <mxPoint x="-463.4100000000001" y="899.9999999999998" as="sourcePoint" />
            <mxPoint x="28.589999999999918" y="807" as="targetPoint" />
            <Array as="points" />
          </mxGeometry>
        </mxCell>
        <mxCell id="Jew1sx4pPpGKJ6Vumhpc-8" value="Extends" style="endArrow=block;endSize=16;endFill=0;html=1;rounded=0;fillColor=#1ba1e2;strokeColor=#006EAF;fontSize=14;" parent="MrbrfN5ro4CkiEmwJ0JB-87" source="0EwmHbK1_g-h2IZMiYUe-111" target="0EwmHbK1_g-h2IZMiYUe-107" edge="1">
          <mxGeometry width="160" relative="1" as="geometry">
            <mxPoint x="368.59" y="370" as="sourcePoint" />
            <mxPoint x="528.5899999999999" y="370" as="targetPoint" />
          </mxGeometry>
        </mxCell>
        <mxCell id="h-SIncH39Dyfa8a2vWrz-15" value="Extends" style="endArrow=block;endSize=16;endFill=0;html=1;rounded=0;fillColor=#1ba1e2;strokeColor=#006EAF;fontSize=14;" parent="MrbrfN5ro4CkiEmwJ0JB-87" target="0EwmHbK1_g-h2IZMiYUe-142" edge="1" source="0EwmHbK1_g-h2IZMiYUe-131">
          <mxGeometry width="160" relative="1" as="geometry">
            <mxPoint x="138.58999999999997" y="770" as="sourcePoint" />
            <mxPoint x="-46.41000000000008" y="849.9999999999998" as="targetPoint" />
          </mxGeometry>
        </mxCell>
        <mxCell id="Jew1sx4pPpGKJ6Vumhpc-9" value="Extends" style="endArrow=block;endSize=16;endFill=0;html=1;rounded=0;fillColor=#1ba1e2;strokeColor=#006EAF;fontSize=14;" parent="MrbrfN5ro4CkiEmwJ0JB-87" source="0EwmHbK1_g-h2IZMiYUe-115" target="0EwmHbK1_g-h2IZMiYUe-107" edge="1">
          <mxGeometry width="160" relative="1" as="geometry">
            <mxPoint x="518.5899999999999" y="386.5" as="sourcePoint" />
            <mxPoint x="558.5899999999999" y="343" as="targetPoint" />
          </mxGeometry>
        </mxCell>
        <mxCell id="h-SIncH39Dyfa8a2vWrz-19" value="Extends" style="endArrow=block;endSize=16;endFill=0;html=1;rounded=0;fillColor=#1ba1e2;strokeColor=#006EAF;fontSize=14;" parent="MrbrfN5ro4CkiEmwJ0JB-87" source="0EwmHbK1_g-h2IZMiYUe-127" target="0EwmHbK1_g-h2IZMiYUe-142" edge="1">
          <mxGeometry width="160" relative="1" as="geometry">
            <mxPoint x="138.58999999999997" y="1060" as="sourcePoint" />
            <mxPoint x="-18.410000000000082" y="907" as="targetPoint" />
            <Array as="points" />
          </mxGeometry>
        </mxCell>
        <mxCell id="Jew1sx4pPpGKJ6Vumhpc-10" value="Extends" style="endArrow=block;endSize=16;endFill=0;html=1;rounded=0;fillColor=#1ba1e2;strokeColor=#006EAF;fontSize=14;" parent="MrbrfN5ro4CkiEmwJ0JB-87" source="0EwmHbK1_g-h2IZMiYUe-119" target="0EwmHbK1_g-h2IZMiYUe-107" edge="1">
          <mxGeometry width="160" relative="1" as="geometry">
            <mxPoint x="748.5899999999999" y="380" as="sourcePoint" />
            <mxPoint x="908.5899999999999" y="380" as="targetPoint" />
          </mxGeometry>
        </mxCell>
        <mxCell id="h-SIncH39Dyfa8a2vWrz-20" value="Extends" style="endArrow=block;endSize=16;endFill=0;html=1;rounded=0;exitX=0.5;exitY=0;exitDx=0;exitDy=0;fillColor=#1ba1e2;strokeColor=#006EAF;fontSize=14;" parent="MrbrfN5ro4CkiEmwJ0JB-87" source="0EwmHbK1_g-h2IZMiYUe-123" target="0EwmHbK1_g-h2IZMiYUe-142" edge="1">
          <mxGeometry width="160" relative="1" as="geometry">
            <mxPoint x="80.58999999999992" y="869.9999999999998" as="sourcePoint" />
            <mxPoint x="-191.41000000000008" y="810" as="targetPoint" />
          </mxGeometry>
        </mxCell>
        <mxCell id="Jew1sx4pPpGKJ6Vumhpc-11" value="" style="endArrow=diamondThin;endFill=1;endSize=24;html=1;rounded=0;fontSize=14;" parent="MrbrfN5ro4CkiEmwJ0JB-87" source="0EwmHbK1_g-h2IZMiYUe-83" target="0EwmHbK1_g-h2IZMiYUe-119" edge="1">
          <mxGeometry width="160" relative="1" as="geometry">
            <mxPoint x="1615.3633070866138" y="540" as="sourcePoint" />
            <mxPoint x="801.5899999999999" y="500" as="targetPoint" />
            <Array as="points">
              <mxPoint x="1620" y="610" />
              <mxPoint x="1738.59" y="610" />
              <mxPoint x="1738.59" y="1250" />
              <mxPoint x="1580" y="1250" />
            </Array>
          </mxGeometry>
        </mxCell>
        <mxCell id="R___gokMjIJOq8RrT0xm-16" value="&lt;font&gt;1&lt;/font&gt;" style="edgeLabel;html=1;align=center;verticalAlign=middle;resizable=0;points=[];fontSize=14;" parent="Jew1sx4pPpGKJ6Vumhpc-11" vertex="1" connectable="0">
          <mxGeometry x="0.9757" y="1" relative="1" as="geometry">
            <mxPoint x="21" y="-2" as="offset" />
          </mxGeometry>
        </mxCell>
        <mxCell id="MrbrfN5ro4CkiEmwJ0JB-95" value="&lt;font&gt;1&lt;/font&gt;" style="edgeLabel;html=1;align=center;verticalAlign=middle;resizable=0;points=[];fontSize=14;" vertex="1" connectable="0" parent="Jew1sx4pPpGKJ6Vumhpc-11">
          <mxGeometry x="-0.9789" relative="1" as="geometry">
            <mxPoint x="21" y="-1" as="offset" />
          </mxGeometry>
        </mxCell>
        <mxCell id="Jew1sx4pPpGKJ6Vumhpc-12" value="" style="endArrow=diamondThin;endFill=1;endSize=24;html=1;rounded=0;fontSize=14;" parent="MrbrfN5ro4CkiEmwJ0JB-87" source="0EwmHbK1_g-h2IZMiYUe-75" target="0EwmHbK1_g-h2IZMiYUe-115" edge="1">
          <mxGeometry width="160" relative="1" as="geometry">
            <mxPoint x="608.5899999999999" y="710" as="sourcePoint" />
            <mxPoint x="1308.59" y="1120" as="targetPoint" />
            <Array as="points">
              <mxPoint x="954" y="690" />
              <mxPoint x="1700" y="690" />
              <mxPoint x="1700" y="1310" />
              <mxPoint x="1030" y="1310" />
            </Array>
          </mxGeometry>
        </mxCell>
        <mxCell id="MrbrfN5ro4CkiEmwJ0JB-83" value="&lt;font&gt;1&lt;/font&gt;" style="edgeLabel;html=1;align=center;verticalAlign=middle;resizable=0;points=[];fontSize=14;" vertex="1" connectable="0" parent="Jew1sx4pPpGKJ6Vumhpc-12">
          <mxGeometry x="0.9763" relative="1" as="geometry">
            <mxPoint x="16" y="-5" as="offset" />
          </mxGeometry>
        </mxCell>
        <mxCell id="MrbrfN5ro4CkiEmwJ0JB-93" value="&lt;font&gt;1&lt;/font&gt;" style="edgeLabel;html=1;align=center;verticalAlign=middle;resizable=0;points=[];fontSize=14;" vertex="1" connectable="0" parent="Jew1sx4pPpGKJ6Vumhpc-12">
          <mxGeometry x="-0.9844" y="-1" relative="1" as="geometry">
            <mxPoint x="16" as="offset" />
          </mxGeometry>
        </mxCell>
        <mxCell id="Jew1sx4pPpGKJ6Vumhpc-13" value="" style="endArrow=diamondThin;endFill=1;endSize=24;html=1;rounded=0;fontSize=14;" parent="MrbrfN5ro4CkiEmwJ0JB-87" source="0EwmHbK1_g-h2IZMiYUe-79" target="0EwmHbK1_g-h2IZMiYUe-111" edge="1">
          <mxGeometry width="160" relative="1" as="geometry">
            <mxPoint x="508.59" y="630" as="sourcePoint" />
            <mxPoint x="668.5899999999999" y="630" as="targetPoint" />
            <Array as="points">
              <mxPoint x="1286" y="650" />
              <mxPoint x="1720" y="650" />
              <mxPoint x="1720" y="1280" />
              <mxPoint x="1300" y="1280" />
            </Array>
          </mxGeometry>
        </mxCell>
        <mxCell id="R___gokMjIJOq8RrT0xm-12" value="&lt;font&gt;1&lt;/font&gt;" style="edgeLabel;html=1;align=center;verticalAlign=middle;resizable=0;points=[];fontSize=14;" parent="Jew1sx4pPpGKJ6Vumhpc-13" vertex="1" connectable="0">
          <mxGeometry x="0.9702" relative="1" as="geometry">
            <mxPoint x="17" y="-4" as="offset" />
          </mxGeometry>
        </mxCell>
        <mxCell id="MrbrfN5ro4CkiEmwJ0JB-94" value="&lt;font&gt;1&lt;/font&gt;" style="edgeLabel;html=1;align=center;verticalAlign=middle;resizable=0;points=[];fontSize=14;" vertex="1" connectable="0" parent="Jew1sx4pPpGKJ6Vumhpc-13">
          <mxGeometry x="-0.9778" y="-1" relative="1" as="geometry">
            <mxPoint x="16" y="-4" as="offset" />
          </mxGeometry>
        </mxCell>
        <mxCell id="Jew1sx4pPpGKJ6Vumhpc-16" value="" style="endArrow=diamondThin;endFill=1;endSize=24;html=1;rounded=0;fontSize=14;" parent="MrbrfN5ro4CkiEmwJ0JB-87" source="0EwmHbK1_g-h2IZMiYUe-103" target="0EwmHbK1_g-h2IZMiYUe-111" edge="1">
          <mxGeometry width="160" relative="1" as="geometry">
            <mxPoint x="878.5899999999999" y="800" as="sourcePoint" />
            <mxPoint x="783.2300000000002" y="1123.44" as="targetPoint" />
            <Array as="points">
              <mxPoint x="958.5899999999999" y="1050" />
              <mxPoint x="1208.59" y="1050" />
            </Array>
          </mxGeometry>
        </mxCell>
        <mxCell id="R___gokMjIJOq8RrT0xm-14" value="&lt;font&gt;1&lt;/font&gt;" style="edgeLabel;html=1;align=center;verticalAlign=middle;resizable=0;points=[];fontSize=14;" parent="Jew1sx4pPpGKJ6Vumhpc-16" vertex="1" connectable="0">
          <mxGeometry x="0.9211" y="4" relative="1" as="geometry">
            <mxPoint x="-32" y="-16" as="offset" />
          </mxGeometry>
        </mxCell>
        <mxCell id="MrbrfN5ro4CkiEmwJ0JB-91" value="&lt;font&gt;1&lt;/font&gt;" style="edgeLabel;html=1;align=center;verticalAlign=middle;resizable=0;points=[];fontSize=14;" vertex="1" connectable="0" parent="Jew1sx4pPpGKJ6Vumhpc-16">
          <mxGeometry x="-0.8599" relative="1" as="geometry">
            <mxPoint x="4" y="11" as="offset" />
          </mxGeometry>
        </mxCell>
        <mxCell id="Jew1sx4pPpGKJ6Vumhpc-17" value="" style="endArrow=diamondThin;endFill=1;endSize=24;html=1;rounded=0;fontSize=14;" parent="MrbrfN5ro4CkiEmwJ0JB-87" source="0EwmHbK1_g-h2IZMiYUe-103" target="0EwmHbK1_g-h2IZMiYUe-115" edge="1">
          <mxGeometry width="160" relative="1" as="geometry">
            <mxPoint x="618.5899999999999" y="690" as="sourcePoint" />
            <mxPoint x="778.5899999999999" y="690" as="targetPoint" />
            <Array as="points">
              <mxPoint x="918.5899999999999" y="1040" />
            </Array>
          </mxGeometry>
        </mxCell>
        <mxCell id="R___gokMjIJOq8RrT0xm-13" value="&lt;font&gt;1&lt;/font&gt;" style="edgeLabel;html=1;align=center;verticalAlign=middle;resizable=0;points=[];fontSize=14;" parent="Jew1sx4pPpGKJ6Vumhpc-17" vertex="1" connectable="0">
          <mxGeometry x="0.8863" relative="1" as="geometry">
            <mxPoint x="-19" as="offset" />
          </mxGeometry>
        </mxCell>
        <mxCell id="MrbrfN5ro4CkiEmwJ0JB-90" value="&lt;font&gt;1&lt;/font&gt;" style="edgeLabel;html=1;align=center;verticalAlign=middle;resizable=0;points=[];fontSize=14;" vertex="1" connectable="0" parent="Jew1sx4pPpGKJ6Vumhpc-17">
          <mxGeometry x="-0.8202" y="-1" relative="1" as="geometry">
            <mxPoint y="10" as="offset" />
          </mxGeometry>
        </mxCell>
        <mxCell id="Jew1sx4pPpGKJ6Vumhpc-18" value="" style="endArrow=diamondThin;endFill=1;endSize=24;html=1;rounded=0;fontSize=14;" parent="MrbrfN5ro4CkiEmwJ0JB-87" source="0EwmHbK1_g-h2IZMiYUe-103" target="0EwmHbK1_g-h2IZMiYUe-119" edge="1">
          <mxGeometry width="160" relative="1" as="geometry">
            <mxPoint x="618.5899999999999" y="690" as="sourcePoint" />
            <mxPoint x="778.5899999999999" y="690" as="targetPoint" />
            <Array as="points">
              <mxPoint x="968.5899999999999" y="1010" />
              <mxPoint x="1468.59" y="1010" />
            </Array>
          </mxGeometry>
        </mxCell>
        <mxCell id="R___gokMjIJOq8RrT0xm-15" value="&lt;font&gt;1&lt;/font&gt;" style="edgeLabel;html=1;align=center;verticalAlign=middle;resizable=0;points=[];fontSize=14;" parent="Jew1sx4pPpGKJ6Vumhpc-18" vertex="1" connectable="0">
          <mxGeometry x="0.9202" y="-1" relative="1" as="geometry">
            <mxPoint x="-22" y="1" as="offset" />
          </mxGeometry>
        </mxCell>
        <mxCell id="MrbrfN5ro4CkiEmwJ0JB-92" value="&lt;font&gt;1&lt;/font&gt;" style="edgeLabel;html=1;align=center;verticalAlign=middle;resizable=0;points=[];fontSize=14;" vertex="1" connectable="0" parent="Jew1sx4pPpGKJ6Vumhpc-18">
          <mxGeometry x="-0.8911" y="1" relative="1" as="geometry">
            <mxPoint x="12" y="18" as="offset" />
          </mxGeometry>
        </mxCell>
        <mxCell id="Jew1sx4pPpGKJ6Vumhpc-19" value="Use" style="endArrow=open;endSize=12;dashed=1;html=1;rounded=0;fontSize=14;" parent="MrbrfN5ro4CkiEmwJ0JB-87" source="0EwmHbK1_g-h2IZMiYUe-79" target="0EwmHbK1_g-h2IZMiYUe-99" edge="1">
          <mxGeometry width="160" relative="1" as="geometry">
            <mxPoint x="1208.59" y="730" as="sourcePoint" />
            <mxPoint x="1368.59" y="730" as="targetPoint" />
            <Array as="points">
              <mxPoint x="1240" y="250" />
              <mxPoint x="758.5899999999999" y="250" />
            </Array>
          </mxGeometry>
        </mxCell>
        <mxCell id="Jew1sx4pPpGKJ6Vumhpc-20" value="Use" style="endArrow=open;endSize=12;dashed=1;html=1;rounded=0;fontSize=14;" parent="MrbrfN5ro4CkiEmwJ0JB-87" source="0EwmHbK1_g-h2IZMiYUe-75" target="0EwmHbK1_g-h2IZMiYUe-99" edge="1">
          <mxGeometry width="160" relative="1" as="geometry">
            <mxPoint x="1248.59" y="740" as="sourcePoint" />
            <mxPoint x="1408.59" y="740" as="targetPoint" />
            <Array as="points">
              <mxPoint x="930" y="290" />
              <mxPoint x="778.5899999999999" y="290" />
            </Array>
          </mxGeometry>
        </mxCell>
        <mxCell id="Jew1sx4pPpGKJ6Vumhpc-21" value="Use" style="endArrow=open;endSize=12;dashed=1;html=1;rounded=0;fontSize=14;" parent="MrbrfN5ro4CkiEmwJ0JB-87" source="0EwmHbK1_g-h2IZMiYUe-83" target="0EwmHbK1_g-h2IZMiYUe-99" edge="1">
          <mxGeometry width="160" relative="1" as="geometry">
            <mxPoint x="1248.59" y="740" as="sourcePoint" />
            <mxPoint x="1408.59" y="740" as="targetPoint" />
            <Array as="points">
              <mxPoint x="1560" y="210" />
              <mxPoint x="738.5899999999999" y="210" />
            </Array>
          </mxGeometry>
        </mxCell>
        <mxCell id="Jew1sx4pPpGKJ6Vumhpc-26" value="Use" style="endArrow=open;endSize=12;dashed=1;html=1;rounded=0;fontSize=14;" parent="MrbrfN5ro4CkiEmwJ0JB-87" source="0EwmHbK1_g-h2IZMiYUe-103" target="0EwmHbK1_g-h2IZMiYUe-95" edge="1">
          <mxGeometry width="160" relative="1" as="geometry">
            <mxPoint x="-223.46000000000004" y="223" as="sourcePoint" />
            <mxPoint x="86.53999999999974" y="243" as="targetPoint" />
            <Array as="points">
              <mxPoint x="738.5899999999999" y="490" />
              <mxPoint x="513.5899999999999" y="490" />
            </Array>
          </mxGeometry>
        </mxCell>
        <mxCell id="Jew1sx4pPpGKJ6Vumhpc-28" value="Use" style="endArrow=open;endSize=12;dashed=1;html=1;rounded=0;fontSize=14;" parent="MrbrfN5ro4CkiEmwJ0JB-87" source="0EwmHbK1_g-h2IZMiYUe-103" target="0EwmHbK1_g-h2IZMiYUe-91" edge="1">
          <mxGeometry width="160" relative="1" as="geometry">
            <mxPoint x="-73.46000000000026" y="243" as="sourcePoint" />
            <mxPoint x="86.53999999999974" y="243" as="targetPoint" />
            <Array as="points">
              <mxPoint x="698.5899999999999" y="530" />
              <mxPoint x="215" y="530" />
            </Array>
          </mxGeometry>
        </mxCell>
        <mxCell id="h-SIncH39Dyfa8a2vWrz-51" value="" style="endArrow=diamondThin;endFill=1;endSize=24;html=1;rounded=0;fontSize=14;" parent="MrbrfN5ro4CkiEmwJ0JB-87" source="0EwmHbK1_g-h2IZMiYUe-106" edge="1" target="0EwmHbK1_g-h2IZMiYUe-131">
          <mxGeometry width="160" relative="1" as="geometry">
            <mxPoint x="508.59" y="830" as="sourcePoint" />
            <mxPoint x="298.59" y="748" as="targetPoint" />
            <Array as="points">
              <mxPoint x="698.5899999999999" y="990" />
              <mxPoint x="105" y="990" />
            </Array>
          </mxGeometry>
        </mxCell>
        <mxCell id="h-SIncH39Dyfa8a2vWrz-52" value="&lt;font&gt;1&lt;/font&gt;" style="edgeLabel;html=1;align=center;verticalAlign=middle;resizable=0;points=[];fontSize=14;" parent="h-SIncH39Dyfa8a2vWrz-51" connectable="0" vertex="1">
          <mxGeometry x="-0.9224" y="1" relative="1" as="geometry">
            <mxPoint x="-21" y="37" as="offset" />
          </mxGeometry>
        </mxCell>
        <mxCell id="h-SIncH39Dyfa8a2vWrz-53" value="&lt;font&gt;1&lt;/font&gt;" style="edgeLabel;html=1;align=center;verticalAlign=middle;resizable=0;points=[];fontSize=14;" parent="h-SIncH39Dyfa8a2vWrz-51" connectable="0" vertex="1">
          <mxGeometry x="0.8833" relative="1" as="geometry">
            <mxPoint x="10" y="11" as="offset" />
          </mxGeometry>
        </mxCell>
        <mxCell id="h-SIncH39Dyfa8a2vWrz-54" value="" style="endArrow=diamondThin;endFill=1;endSize=24;html=1;rounded=0;fontSize=14;" parent="MrbrfN5ro4CkiEmwJ0JB-87" source="0EwmHbK1_g-h2IZMiYUe-123" target="0EwmHbK1_g-h2IZMiYUe-42" edge="1">
          <mxGeometry width="160" relative="1" as="geometry">
            <mxPoint x="658.5899999999999" y="1270" as="sourcePoint" />
            <mxPoint x="658.5899999999999" y="1240" as="targetPoint" />
            <Array as="points">
              <mxPoint x="695" y="1330" />
              <mxPoint x="870" y="1330" />
            </Array>
          </mxGeometry>
        </mxCell>
        <mxCell id="h-SIncH39Dyfa8a2vWrz-55" value="&lt;font&gt;1&lt;/font&gt;" style="edgeLabel;html=1;align=center;verticalAlign=middle;resizable=0;points=[];fontSize=14;" parent="h-SIncH39Dyfa8a2vWrz-54" connectable="0" vertex="1">
          <mxGeometry x="0.9518" y="3" relative="1" as="geometry">
            <mxPoint x="-13" y="-35" as="offset" />
          </mxGeometry>
        </mxCell>
        <mxCell id="h-SIncH39Dyfa8a2vWrz-56" value="&lt;font&gt;0..*&lt;/font&gt;" style="edgeLabel;html=1;align=center;verticalAlign=middle;resizable=0;points=[];fontSize=14;" parent="h-SIncH39Dyfa8a2vWrz-54" connectable="0" vertex="1">
          <mxGeometry x="-0.9395" y="1" relative="1" as="geometry">
            <mxPoint x="19" y="5" as="offset" />
          </mxGeometry>
        </mxCell>
        <mxCell id="h-SIncH39Dyfa8a2vWrz-57" value="" style="endArrow=diamondThin;endFill=1;endSize=24;html=1;rounded=0;fontSize=14;" parent="MrbrfN5ro4CkiEmwJ0JB-87" target="0EwmHbK1_g-h2IZMiYUe-42" edge="1" source="0EwmHbK1_g-h2IZMiYUe-127">
          <mxGeometry width="160" relative="1" as="geometry">
            <mxPoint x="215.76" y="1240" as="sourcePoint" />
            <mxPoint x="665.76" y="1410" as="targetPoint" />
            <Array as="points">
              <mxPoint x="476" y="1350" />
              <mxPoint x="830" y="1350" />
            </Array>
          </mxGeometry>
        </mxCell>
        <mxCell id="h-SIncH39Dyfa8a2vWrz-59" value="&lt;font&gt;0..*&lt;/font&gt;" style="edgeLabel;html=1;align=center;verticalAlign=middle;resizable=0;points=[];fontSize=14;" parent="h-SIncH39Dyfa8a2vWrz-57" connectable="0" vertex="1">
          <mxGeometry x="-0.9492" relative="1" as="geometry">
            <mxPoint x="21" y="5" as="offset" />
          </mxGeometry>
        </mxCell>
        <mxCell id="h-SIncH39Dyfa8a2vWrz-61" value="&lt;font&gt;1&lt;/font&gt;" style="edgeLabel;html=1;align=center;verticalAlign=middle;resizable=0;points=[];fontSize=14;" parent="h-SIncH39Dyfa8a2vWrz-57" connectable="0" vertex="1">
          <mxGeometry x="0.9133" y="-1" relative="1" as="geometry">
            <mxPoint x="-1" y="-20" as="offset" />
          </mxGeometry>
        </mxCell>
        <mxCell id="h-SIncH39Dyfa8a2vWrz-58" value="" style="endArrow=diamondThin;endFill=1;endSize=24;html=1;rounded=0;fontSize=14;" parent="MrbrfN5ro4CkiEmwJ0JB-87" target="0EwmHbK1_g-h2IZMiYUe-42" edge="1" source="0EwmHbK1_g-h2IZMiYUe-135">
          <mxGeometry width="160" relative="1" as="geometry">
            <mxPoint x="298.59" y="910" as="sourcePoint" />
            <mxPoint x="668.5899999999999" y="1160" as="targetPoint" />
            <Array as="points">
              <mxPoint x="290" y="1370" />
              <mxPoint x="790" y="1370" />
            </Array>
          </mxGeometry>
        </mxCell>
        <mxCell id="h-SIncH39Dyfa8a2vWrz-60" value="&lt;font&gt;0..*&lt;/font&gt;" style="edgeLabel;html=1;align=center;verticalAlign=middle;resizable=0;points=[];fontSize=14;" parent="h-SIncH39Dyfa8a2vWrz-58" connectable="0" vertex="1">
          <mxGeometry x="-0.9295" relative="1" as="geometry">
            <mxPoint x="20" y="-10" as="offset" />
          </mxGeometry>
        </mxCell>
        <mxCell id="h-SIncH39Dyfa8a2vWrz-62" value="&lt;font&gt;1&lt;/font&gt;" style="edgeLabel;html=1;align=center;verticalAlign=middle;resizable=0;points=[];fontSize=14;" parent="h-SIncH39Dyfa8a2vWrz-58" connectable="0" vertex="1">
          <mxGeometry x="0.9522" relative="1" as="geometry">
            <mxPoint x="-15" y="-28" as="offset" />
          </mxGeometry>
        </mxCell>
        <mxCell id="h-SIncH39Dyfa8a2vWrz-70" value="" style="endArrow=diamondThin;endFill=1;endSize=24;html=1;rounded=0;fontSize=14;" parent="MrbrfN5ro4CkiEmwJ0JB-87" target="0EwmHbK1_g-h2IZMiYUe-42" edge="1" source="0EwmHbK1_g-h2IZMiYUe-119">
          <mxGeometry width="160" relative="1" as="geometry">
            <mxPoint x="858.5899999999999" y="520" as="sourcePoint" />
            <mxPoint x="888.5899999999999" y="1450" as="targetPoint" />
            <Array as="points">
              <mxPoint x="1498.59" y="1370" />
              <mxPoint x="1040" y="1370" />
            </Array>
          </mxGeometry>
        </mxCell>
        <mxCell id="h-SIncH39Dyfa8a2vWrz-74" value="&lt;font&gt;0..1&lt;/font&gt;" style="edgeLabel;html=1;align=center;verticalAlign=middle;resizable=0;points=[];fontSize=14;" parent="h-SIncH39Dyfa8a2vWrz-70" connectable="0" vertex="1">
          <mxGeometry x="-0.9388" relative="1" as="geometry">
            <mxPoint x="-20" y="-7" as="offset" />
          </mxGeometry>
        </mxCell>
        <mxCell id="h-SIncH39Dyfa8a2vWrz-75" value="&lt;font&gt;1&lt;/font&gt;" style="edgeLabel;html=1;align=center;verticalAlign=middle;resizable=0;points=[];fontSize=14;" parent="h-SIncH39Dyfa8a2vWrz-70" connectable="0" vertex="1">
          <mxGeometry x="0.924" y="-2" relative="1" as="geometry">
            <mxPoint x="21" y="-4" as="offset" />
          </mxGeometry>
        </mxCell>
        <mxCell id="h-SIncH39Dyfa8a2vWrz-76" value="" style="endArrow=diamondThin;endFill=1;endSize=24;html=1;rounded=0;fontSize=14;" parent="MrbrfN5ro4CkiEmwJ0JB-87" source="0EwmHbK1_g-h2IZMiYUe-115" target="0EwmHbK1_g-h2IZMiYUe-42" edge="1">
          <mxGeometry width="160" relative="1" as="geometry">
            <mxPoint x="598.5899999999999" y="500" as="sourcePoint" />
            <mxPoint x="808.5899999999999" y="1100" as="targetPoint" />
            <Array as="points">
              <mxPoint x="940" y="1330" />
            </Array>
          </mxGeometry>
        </mxCell>
        <mxCell id="h-SIncH39Dyfa8a2vWrz-77" value="&lt;font&gt;1&lt;/font&gt;" style="edgeLabel;html=1;align=center;verticalAlign=middle;resizable=0;points=[];fontSize=14;" parent="h-SIncH39Dyfa8a2vWrz-76" connectable="0" vertex="1">
          <mxGeometry x="0.9285" y="-4" relative="1" as="geometry">
            <mxPoint x="14" y="-28" as="offset" />
          </mxGeometry>
        </mxCell>
        <mxCell id="R___gokMjIJOq8RrT0xm-11" value="&lt;font&gt;0..1&lt;/font&gt;" style="edgeLabel;html=1;align=center;verticalAlign=middle;resizable=0;points=[];fontSize=14;" parent="h-SIncH39Dyfa8a2vWrz-76" vertex="1" connectable="0">
          <mxGeometry x="-0.9843" y="-3" relative="1" as="geometry">
            <mxPoint x="-17" y="12" as="offset" />
          </mxGeometry>
        </mxCell>
        <mxCell id="h-SIncH39Dyfa8a2vWrz-78" value="" style="endArrow=diamondThin;endFill=1;endSize=24;html=1;rounded=0;fontSize=14;" parent="MrbrfN5ro4CkiEmwJ0JB-87" source="0EwmHbK1_g-h2IZMiYUe-111" target="0EwmHbK1_g-h2IZMiYUe-42" edge="1">
          <mxGeometry width="160" relative="1" as="geometry">
            <mxPoint x="458.59" y="520" as="sourcePoint" />
            <mxPoint x="828.5899999999999" y="1450" as="targetPoint" />
            <Array as="points">
              <mxPoint x="1228.59" y="1350" />
              <mxPoint x="990" y="1350" />
            </Array>
          </mxGeometry>
        </mxCell>
        <mxCell id="R___gokMjIJOq8RrT0xm-9" value="&lt;font&gt;1&lt;/font&gt;" style="edgeLabel;html=1;align=center;verticalAlign=middle;resizable=0;points=[];fontSize=14;" parent="h-SIncH39Dyfa8a2vWrz-78" vertex="1" connectable="0">
          <mxGeometry x="0.9491" y="2" relative="1" as="geometry">
            <mxPoint x="18" y="-29" as="offset" />
          </mxGeometry>
        </mxCell>
        <mxCell id="R___gokMjIJOq8RrT0xm-10" value="&lt;font&gt;0..1&lt;/font&gt;" style="edgeLabel;html=1;align=center;verticalAlign=middle;resizable=0;points=[];fontSize=14;" parent="h-SIncH39Dyfa8a2vWrz-78" vertex="1" connectable="0">
          <mxGeometry x="-0.9751" y="-1" relative="1" as="geometry">
            <mxPoint x="-22" y="11" as="offset" />
          </mxGeometry>
        </mxCell>
        <mxCell id="R___gokMjIJOq8RrT0xm-1" value="" style="endArrow=diamondThin;endFill=1;endSize=24;html=1;rounded=0;fontSize=14;" parent="MrbrfN5ro4CkiEmwJ0JB-87" source="0EwmHbK1_g-h2IZMiYUe-152" target="0EwmHbK1_g-h2IZMiYUe-42" edge="1">
          <mxGeometry width="160" relative="1" as="geometry">
            <mxPoint x="995.76" y="1481.94" as="sourcePoint" />
            <mxPoint x="1155.76" y="1481.94" as="targetPoint" />
          </mxGeometry>
        </mxCell>
        <mxCell id="R___gokMjIJOq8RrT0xm-5" value="&lt;font&gt;1&lt;/font&gt;" style="edgeLabel;html=1;align=center;verticalAlign=middle;resizable=0;points=[];fontSize=14;" parent="R___gokMjIJOq8RrT0xm-1" vertex="1" connectable="0">
          <mxGeometry x="-0.9518" y="2" relative="1" as="geometry">
            <mxPoint y="-20" as="offset" />
          </mxGeometry>
        </mxCell>
        <mxCell id="R___gokMjIJOq8RrT0xm-6" value="&lt;font&gt;1&lt;/font&gt;" style="edgeLabel;html=1;align=center;verticalAlign=middle;resizable=0;points=[];fontSize=14;" parent="R___gokMjIJOq8RrT0xm-1" vertex="1" connectable="0">
          <mxGeometry x="0.8298" relative="1" as="geometry">
            <mxPoint x="-2" y="-11" as="offset" />
          </mxGeometry>
        </mxCell>
        <mxCell id="R___gokMjIJOq8RrT0xm-2" value="" style="endArrow=diamondThin;endFill=1;endSize=24;html=1;rounded=0;fontSize=14;" parent="MrbrfN5ro4CkiEmwJ0JB-87" source="0EwmHbK1_g-h2IZMiYUe-63" target="0EwmHbK1_g-h2IZMiYUe-42" edge="1">
          <mxGeometry width="160" relative="1" as="geometry">
            <mxPoint x="725.76" y="1531.94" as="sourcePoint" />
            <mxPoint x="885.76" y="1531.94" as="targetPoint" />
          </mxGeometry>
        </mxCell>
        <mxCell id="R___gokMjIJOq8RrT0xm-3" value="&lt;font&gt;1&lt;/font&gt;" style="edgeLabel;html=1;align=center;verticalAlign=middle;resizable=0;points=[];fontSize=14;" parent="R___gokMjIJOq8RrT0xm-2" vertex="1" connectable="0">
          <mxGeometry x="-0.8838" relative="1" as="geometry">
            <mxPoint x="3" y="-16" as="offset" />
          </mxGeometry>
        </mxCell>
        <mxCell id="R___gokMjIJOq8RrT0xm-7" value="&lt;font&gt;1&lt;/font&gt;" style="edgeLabel;html=1;align=center;verticalAlign=middle;resizable=0;points=[];fontSize=14;" parent="R___gokMjIJOq8RrT0xm-2" vertex="1" connectable="0">
          <mxGeometry x="0.8896" relative="1" as="geometry">
            <mxPoint x="-13" as="offset" />
          </mxGeometry>
        </mxCell>
        <mxCell id="MrbrfN5ro4CkiEmwJ0JB-1" value="" style="endArrow=diamondThin;endFill=1;endSize=24;html=1;rounded=0;fontSize=14;" edge="1" parent="MrbrfN5ro4CkiEmwJ0JB-87" source="0EwmHbK1_g-h2IZMiYUe-106" target="0EwmHbK1_g-h2IZMiYUe-127">
          <mxGeometry width="160" relative="1" as="geometry">
            <mxPoint x="1118.59" y="970" as="sourcePoint" />
            <mxPoint x="588.5899999999999" y="990" as="targetPoint" />
            <Array as="points">
              <mxPoint x="738.5899999999999" y="1030" />
              <mxPoint x="476" y="1030" />
            </Array>
          </mxGeometry>
        </mxCell>
        <mxCell id="MrbrfN5ro4CkiEmwJ0JB-4" value="&lt;font&gt;1&lt;/font&gt;" style="edgeLabel;html=1;align=center;verticalAlign=middle;resizable=0;points=[];fontSize=14;" vertex="1" connectable="0" parent="MrbrfN5ro4CkiEmwJ0JB-1">
          <mxGeometry x="0.9546" y="-2" relative="1" as="geometry">
            <mxPoint x="17" y="-17" as="offset" />
          </mxGeometry>
        </mxCell>
        <mxCell id="MrbrfN5ro4CkiEmwJ0JB-89" value="&lt;font&gt;1&lt;/font&gt;" style="edgeLabel;html=1;align=center;verticalAlign=middle;resizable=0;points=[];fontSize=14;" vertex="1" connectable="0" parent="MrbrfN5ro4CkiEmwJ0JB-1">
          <mxGeometry x="-0.7379" relative="1" as="geometry">
            <mxPoint x="12" y="-34" as="offset" />
          </mxGeometry>
        </mxCell>
        <mxCell id="MrbrfN5ro4CkiEmwJ0JB-16" value="" style="swimlane;startSize=0;fontSize=14;" vertex="1" parent="MrbrfN5ro4CkiEmwJ0JB-87">
          <mxGeometry x="308.59" y="1431.94" width="1241.41" height="990" as="geometry" />
        </mxCell>
        <mxCell id="0EwmHbK1_g-h2IZMiYUe-25" value="AbstractState" style="swimlane;fontStyle=1;align=center;verticalAlign=top;childLayout=stackLayout;horizontal=1;startSize=26;horizontalStack=0;resizeParent=1;resizeParentMax=0;resizeLast=0;collapsible=1;marginBottom=0;whiteSpace=wrap;html=1;labelBackgroundColor=none;dashed=1;dashPattern=8 8;fontSize=14;" parent="MrbrfN5ro4CkiEmwJ0JB-16" vertex="1">
          <mxGeometry x="436.41" y="350" width="320" height="140" as="geometry" />
        </mxCell>
        <mxCell id="0EwmHbK1_g-h2IZMiYUe-26" value="# _game: Game&lt;div&gt;# _load_from_save:&amp;nbsp;bool&lt;/div&gt;" style="text;strokeColor=none;fillColor=none;align=left;verticalAlign=top;spacingLeft=4;spacingRight=4;overflow=hidden;rotatable=0;points=[[0,0.5],[1,0.5]];portConstraint=eastwest;whiteSpace=wrap;html=1;labelBackgroundColor=none;fontSize=14;" parent="0EwmHbK1_g-h2IZMiYUe-25" vertex="1">
          <mxGeometry y="26" width="320" height="44" as="geometry" />
        </mxCell>
        <mxCell id="0EwmHbK1_g-h2IZMiYUe-27" value="" style="line;strokeWidth=1;fillColor=none;align=left;verticalAlign=middle;spacingTop=-1;spacingLeft=3;spacingRight=3;rotatable=0;labelPosition=right;points=[];portConstraint=eastwest;labelBackgroundColor=none;dashed=1;dashPattern=8 8;fontSize=14;" parent="0EwmHbK1_g-h2IZMiYUe-25" vertex="1">
          <mxGeometry y="70" width="320" height="8" as="geometry" />
        </mxCell>
        <mxCell id="0EwmHbK1_g-h2IZMiYUe-28" value="&lt;div&gt;+ update(dt : float) : void&lt;/div&gt;&lt;div&gt;+ draw(screen : pygame.display) : void&amp;nbsp;&lt;/div&gt;&lt;div&gt;+ handle_events(events :&amp;nbsp;pygame.event&lt;span style=&quot;background-color: transparent; color: light-dark(rgb(0, 0, 0), rgb(255, 255, 255));&quot;&gt;) : void&lt;/span&gt;&lt;/div&gt;" style="text;strokeColor=none;fillColor=none;align=left;verticalAlign=top;spacingLeft=4;spacingRight=4;overflow=hidden;rotatable=0;points=[[0,0.5],[1,0.5]];portConstraint=eastwest;whiteSpace=wrap;html=1;labelBackgroundColor=none;fontSize=14;" parent="0EwmHbK1_g-h2IZMiYUe-25" vertex="1">
          <mxGeometry y="78" width="320" height="62" as="geometry" />
        </mxCell>
        <mxCell id="0EwmHbK1_g-h2IZMiYUe-42" value="Play" style="swimlane;fontStyle=1;align=center;verticalAlign=top;childLayout=stackLayout;horizontal=1;startSize=26;horizontalStack=0;resizeParent=1;resizeParentMax=0;resizeLast=0;collapsible=1;marginBottom=0;whiteSpace=wrap;html=1;labelBackgroundColor=none;fontSize=14;" parent="MrbrfN5ro4CkiEmwJ0JB-16" vertex="1">
          <mxGeometry x="441.41" y="20" width="310" height="260" as="geometry" />
        </mxCell>
        <mxCell id="0EwmHbK1_g-h2IZMiYUe-43" value="&lt;div&gt;- __terrain : Terrain&lt;/div&gt;&lt;div&gt;- __player_name : str&lt;/div&gt;&lt;div&gt;- __player : pygame.sprite.GroupSingle&lt;/div&gt;&lt;div&gt;- __enemies : pygame.sprite.Group&lt;/div&gt;&lt;div&gt;&lt;span style=&quot;background-color: transparent; color: light-dark(rgb(0, 0, 0), rgb(255, 255, 255));&quot;&gt;- __player_projectiles : pygame.sprite.Group&lt;/span&gt;&lt;/div&gt;&lt;div&gt;- __enemies_projectiles : pygame.sprite.Group&lt;/div&gt;&lt;div&gt;- __abilities : pygame.sprite.Group&lt;/div&gt;&lt;div&gt;- __hud : Hud&lt;/div&gt;" style="text;strokeColor=none;fillColor=none;align=left;verticalAlign=top;spacingLeft=4;spacingRight=4;overflow=hidden;rotatable=0;points=[[0,0.5],[1,0.5]];portConstraint=eastwest;whiteSpace=wrap;html=1;labelBackgroundColor=none;fontSize=14;" parent="0EwmHbK1_g-h2IZMiYUe-42" vertex="1">
          <mxGeometry y="26" width="310" height="144" as="geometry" />
        </mxCell>
        <mxCell id="0EwmHbK1_g-h2IZMiYUe-44" value="" style="line;strokeWidth=1;fillColor=none;align=left;verticalAlign=middle;spacingTop=-1;spacingLeft=3;spacingRight=3;rotatable=0;labelPosition=right;points=[];portConstraint=eastwest;labelBackgroundColor=none;fontSize=14;" parent="0EwmHbK1_g-h2IZMiYUe-42" vertex="1">
          <mxGeometry y="170" width="310" height="10" as="geometry" />
        </mxCell>
        <mxCell id="0EwmHbK1_g-h2IZMiYUe-45" value="&lt;div&gt;+ update(dt : float) : void&lt;/div&gt;&lt;div&gt;+ draw(screen : pygame.display) : void&amp;nbsp;&lt;/div&gt;&lt;div&gt;+ handle_events(events : pygame.event) : void&lt;/div&gt;&lt;div&gt;- __spawn_enemy() : void&lt;/div&gt;" style="text;strokeColor=none;fillColor=none;align=left;verticalAlign=top;spacingLeft=4;spacingRight=4;overflow=hidden;rotatable=0;points=[[0,0.5],[1,0.5]];portConstraint=eastwest;whiteSpace=wrap;html=1;labelBackgroundColor=none;fontSize=14;" parent="0EwmHbK1_g-h2IZMiYUe-42" vertex="1">
          <mxGeometry y="180" width="310" height="80" as="geometry" />
        </mxCell>
        <mxCell id="Jew1sx4pPpGKJ6Vumhpc-46" value="Extends" style="endArrow=block;endSize=16;endFill=0;html=1;rounded=0;fillColor=#1ba1e2;strokeColor=#006EAF;fontSize=14;" parent="MrbrfN5ro4CkiEmwJ0JB-16" source="0EwmHbK1_g-h2IZMiYUe-42" target="0EwmHbK1_g-h2IZMiYUe-25" edge="1">
          <mxGeometry width="160" relative="1" as="geometry">
            <mxPoint x="547.1700000000001" y="200" as="sourcePoint" />
            <mxPoint x="597.1700000000001" y="470" as="targetPoint" />
          </mxGeometry>
        </mxCell>
        <mxCell id="0EwmHbK1_g-h2IZMiYUe-50" value="CharacterSelect" style="swimlane;fontStyle=1;align=center;verticalAlign=top;childLayout=stackLayout;horizontal=1;startSize=26;horizontalStack=0;resizeParent=1;resizeParentMax=0;resizeLast=0;collapsible=1;marginBottom=0;whiteSpace=wrap;html=1;labelBackgroundColor=none;fontSize=14;" parent="MrbrfN5ro4CkiEmwJ0JB-16" vertex="1">
          <mxGeometry x="71.41000000000003" y="350" width="310" height="120" as="geometry" />
        </mxCell>
        <mxCell id="0EwmHbK1_g-h2IZMiYUe-51" value="&lt;div&gt;&lt;div&gt;&lt;div&gt;&lt;span style=&quot;background-color: transparent; color: light-dark(rgb(0, 0, 0), rgb(255, 255, 255));&quot;&gt;- __characters : dict[str]&lt;/span&gt;&lt;/div&gt;&lt;/div&gt;&lt;/div&gt;" style="text;strokeColor=none;fillColor=none;align=left;verticalAlign=top;spacingLeft=4;spacingRight=4;overflow=hidden;rotatable=0;points=[[0,0.5],[1,0.5]];portConstraint=eastwest;whiteSpace=wrap;html=1;labelBackgroundColor=none;fontSize=14;" parent="0EwmHbK1_g-h2IZMiYUe-50" vertex="1">
          <mxGeometry y="26" width="310" height="24" as="geometry" />
        </mxCell>
        <mxCell id="0EwmHbK1_g-h2IZMiYUe-52" value="" style="line;strokeWidth=1;fillColor=none;align=left;verticalAlign=middle;spacingTop=-1;spacingLeft=3;spacingRight=3;rotatable=0;labelPosition=right;points=[];portConstraint=eastwest;labelBackgroundColor=none;fontSize=14;" parent="0EwmHbK1_g-h2IZMiYUe-50" vertex="1">
          <mxGeometry y="50" width="310" height="8" as="geometry" />
        </mxCell>
        <mxCell id="0EwmHbK1_g-h2IZMiYUe-53" value="&lt;div&gt;+ draw(screen : pygame.display) : void&amp;nbsp;&lt;/div&gt;&lt;div&gt;+ handle_events(events :&amp;nbsp;pygame.event&lt;span style=&quot;background-color: transparent; color: light-dark(rgb(0, 0, 0), rgb(255, 255, 255));&quot;&gt;) : void&lt;/span&gt;&lt;/div&gt;&lt;div&gt;&lt;span style=&quot;background-color: transparent; color: light-dark(rgb(0, 0, 0), rgb(255, 255, 255));&quot;&gt;-&amp;nbsp;&amp;nbsp;&lt;/span&gt;&lt;span style=&quot;background-color: transparent;&quot;&gt;__update_character_info() : void&lt;/span&gt;&lt;/div&gt;" style="text;strokeColor=none;fillColor=none;align=left;verticalAlign=top;spacingLeft=4;spacingRight=4;overflow=hidden;rotatable=0;points=[[0,0.5],[1,0.5]];portConstraint=eastwest;whiteSpace=wrap;html=1;labelBackgroundColor=none;fontSize=14;" parent="0EwmHbK1_g-h2IZMiYUe-50" vertex="1">
          <mxGeometry y="58" width="310" height="62" as="geometry" />
        </mxCell>
        <mxCell id="Jew1sx4pPpGKJ6Vumhpc-55" value="" style="endArrow=open;endFill=1;endSize=12;html=1;rounded=0;fontSize=14;" parent="MrbrfN5ro4CkiEmwJ0JB-16" source="0EwmHbK1_g-h2IZMiYUe-50" target="0EwmHbK1_g-h2IZMiYUe-42" edge="1">
          <mxGeometry width="160" relative="1" as="geometry">
            <mxPoint x="247.17000000000002" y="350" as="sourcePoint" />
            <mxPoint x="407.17" y="350" as="targetPoint" />
          </mxGeometry>
        </mxCell>
        <mxCell id="0EwmHbK1_g-h2IZMiYUe-144" value="Extends" style="endArrow=block;endSize=16;endFill=0;html=1;rounded=0;labelBackgroundColor=none;fontColor=default;fillColor=#1ba1e2;strokeColor=#006EAF;fontSize=14;" parent="MrbrfN5ro4CkiEmwJ0JB-16" source="0EwmHbK1_g-h2IZMiYUe-50" target="0EwmHbK1_g-h2IZMiYUe-25" edge="1">
          <mxGeometry width="160" relative="1" as="geometry">
            <mxPoint x="-137.82999999999998" y="1203.9499999999998" as="sourcePoint" />
            <mxPoint x="62.170000000000016" y="1093.9499999999998" as="targetPoint" />
          </mxGeometry>
        </mxCell>
        <mxCell id="0EwmHbK1_g-h2IZMiYUe-59" value="GameOver" style="swimlane;fontStyle=1;align=center;verticalAlign=top;childLayout=stackLayout;horizontal=1;startSize=26;horizontalStack=0;resizeParent=1;resizeParentMax=0;resizeLast=0;collapsible=1;marginBottom=0;whiteSpace=wrap;html=1;labelBackgroundColor=none;fontSize=14;" parent="MrbrfN5ro4CkiEmwJ0JB-16" vertex="1">
          <mxGeometry x="890.4100000000001" y="138.05999999999995" width="180" height="130" as="geometry" />
        </mxCell>
        <mxCell id="0EwmHbK1_g-h2IZMiYUe-60" value="&lt;div&gt;- __score : int&lt;/div&gt;&lt;div&gt;- __player_name : str&lt;/div&gt;" style="text;strokeColor=none;fillColor=none;align=left;verticalAlign=top;spacingLeft=4;spacingRight=4;overflow=hidden;rotatable=0;points=[[0,0.5],[1,0.5]];portConstraint=eastwest;whiteSpace=wrap;html=1;labelBackgroundColor=none;fontSize=14;" parent="0EwmHbK1_g-h2IZMiYUe-59" vertex="1">
          <mxGeometry y="26" width="180" height="44" as="geometry" />
        </mxCell>
        <mxCell id="0EwmHbK1_g-h2IZMiYUe-61" value="" style="line;strokeWidth=1;fillColor=none;align=left;verticalAlign=middle;spacingTop=-1;spacingLeft=3;spacingRight=3;rotatable=0;labelPosition=right;points=[];portConstraint=eastwest;labelBackgroundColor=none;fontSize=14;" parent="0EwmHbK1_g-h2IZMiYUe-59" vertex="1">
          <mxGeometry y="70" width="180" height="8" as="geometry" />
        </mxCell>
        <mxCell id="0EwmHbK1_g-h2IZMiYUe-62" value="&lt;div&gt;- __restart_game(): void&lt;/div&gt;&lt;div&gt;- __return_to_menu(): void&lt;/div&gt;" style="text;strokeColor=none;fillColor=none;align=left;verticalAlign=top;spacingLeft=4;spacingRight=4;overflow=hidden;rotatable=0;points=[[0,0.5],[1,0.5]];portConstraint=eastwest;whiteSpace=wrap;html=1;labelBackgroundColor=none;fontSize=14;" parent="0EwmHbK1_g-h2IZMiYUe-59" vertex="1">
          <mxGeometry y="78" width="180" height="52" as="geometry" />
        </mxCell>
        <mxCell id="Jew1sx4pPpGKJ6Vumhpc-56" value="" style="endArrow=none;html=1;edgeStyle=orthogonalEdgeStyle;rounded=0;fontSize=14;" parent="MrbrfN5ro4CkiEmwJ0JB-16" source="0EwmHbK1_g-h2IZMiYUe-42" target="0EwmHbK1_g-h2IZMiYUe-59" edge="1">
          <mxGeometry relative="1" as="geometry">
            <mxPoint x="651.1700000000001" y="100" as="sourcePoint" />
            <mxPoint x="811.1700000000001" y="100" as="targetPoint" />
            <Array as="points">
              <mxPoint x="821" y="140" />
              <mxPoint x="821" y="203" />
            </Array>
          </mxGeometry>
        </mxCell>
        <mxCell id="0EwmHbK1_g-h2IZMiYUe-148" value="Extends" style="endArrow=block;endSize=16;endFill=0;html=1;rounded=0;labelBackgroundColor=none;fontColor=default;fillColor=#1ba1e2;strokeColor=#006EAF;fontSize=14;" parent="MrbrfN5ro4CkiEmwJ0JB-16" source="0EwmHbK1_g-h2IZMiYUe-59" target="0EwmHbK1_g-h2IZMiYUe-25" edge="1">
          <mxGeometry width="160" relative="1" as="geometry">
            <mxPoint x="432.17" y="1203.9499999999998" as="sourcePoint" />
            <mxPoint x="592.1700000000001" y="1203.9499999999998" as="targetPoint" />
          </mxGeometry>
        </mxCell>
        <mxCell id="0EwmHbK1_g-h2IZMiYUe-55" value="SaveConfirmation" style="swimlane;fontStyle=5;align=center;verticalAlign=top;childLayout=stackLayout;horizontal=1;startSize=26;horizontalStack=0;resizeParent=1;resizeParentMax=0;resizeLast=0;collapsible=1;marginBottom=0;whiteSpace=wrap;html=1;labelBackgroundColor=none;fontSize=14;" parent="MrbrfN5ro4CkiEmwJ0JB-16" vertex="1">
          <mxGeometry x="815.4100000000001" y="470" width="330" height="130" as="geometry" />
        </mxCell>
        <mxCell id="0EwmHbK1_g-h2IZMiYUe-56" value="&lt;div&gt;- __play_state : Play&lt;/div&gt;&lt;div&gt;- __return_to_menu_after_saving : bool&lt;/div&gt;" style="text;strokeColor=none;fillColor=none;align=left;verticalAlign=top;spacingLeft=4;spacingRight=4;overflow=hidden;rotatable=0;points=[[0,0.5],[1,0.5]];portConstraint=eastwest;whiteSpace=wrap;html=1;labelBackgroundColor=none;fontSize=14;" parent="0EwmHbK1_g-h2IZMiYUe-55" vertex="1">
          <mxGeometry y="26" width="330" height="44" as="geometry" />
        </mxCell>
        <mxCell id="0EwmHbK1_g-h2IZMiYUe-57" value="" style="line;strokeWidth=1;fillColor=none;align=left;verticalAlign=middle;spacingTop=-1;spacingLeft=3;spacingRight=3;rotatable=0;labelPosition=right;points=[];portConstraint=eastwest;labelBackgroundColor=none;fontSize=14;" parent="0EwmHbK1_g-h2IZMiYUe-55" vertex="1">
          <mxGeometry y="70" width="330" height="8" as="geometry" />
        </mxCell>
        <mxCell id="0EwmHbK1_g-h2IZMiYUe-58" value="&lt;div&gt;- __save_and_leave_session(file_name : str) : void&lt;/div&gt;&lt;div&gt;- __leave_session() : void&lt;/div&gt;" style="text;strokeColor=none;fillColor=none;align=left;verticalAlign=top;spacingLeft=4;spacingRight=4;overflow=hidden;rotatable=0;points=[[0,0.5],[1,0.5]];portConstraint=eastwest;whiteSpace=wrap;html=1;labelBackgroundColor=none;fontSize=14;" parent="0EwmHbK1_g-h2IZMiYUe-55" vertex="1">
          <mxGeometry y="78" width="330" height="52" as="geometry" />
        </mxCell>
        <mxCell id="Jew1sx4pPpGKJ6Vumhpc-60" value="" style="endArrow=open;endFill=1;endSize=12;html=1;rounded=0;fontSize=14;" parent="MrbrfN5ro4CkiEmwJ0JB-16" source="0EwmHbK1_g-h2IZMiYUe-43" target="0EwmHbK1_g-h2IZMiYUe-55" edge="1">
          <mxGeometry width="160" relative="1" as="geometry">
            <mxPoint x="677.1700000000001" y="120" as="sourcePoint" />
            <mxPoint x="627.1700000000001" y="390" as="targetPoint" />
            <Array as="points">
              <mxPoint x="1191.41" y="118.05999999999995" />
              <mxPoint x="1191.41" y="538.06" />
            </Array>
          </mxGeometry>
        </mxCell>
        <mxCell id="0EwmHbK1_g-h2IZMiYUe-147" value="Extends" style="endArrow=block;endSize=16;endFill=0;html=1;rounded=0;labelBackgroundColor=none;fontColor=default;fillColor=#1ba1e2;strokeColor=#006EAF;fontSize=14;" parent="MrbrfN5ro4CkiEmwJ0JB-16" source="0EwmHbK1_g-h2IZMiYUe-55" target="0EwmHbK1_g-h2IZMiYUe-25" edge="1">
          <mxGeometry width="160" relative="1" as="geometry">
            <mxPoint x="672.1700000000001" y="1199.9499999999998" as="sourcePoint" />
            <mxPoint x="832.1700000000001" y="1199.9499999999998" as="targetPoint" />
          </mxGeometry>
        </mxCell>
        <mxCell id="0EwmHbK1_g-h2IZMiYUe-46" value="Pause" style="swimlane;fontStyle=1;align=center;verticalAlign=top;childLayout=stackLayout;horizontal=1;startSize=26;horizontalStack=0;resizeParent=1;resizeParentMax=0;resizeLast=0;collapsible=1;marginBottom=0;whiteSpace=wrap;html=1;labelBackgroundColor=none;fontSize=14;" parent="MrbrfN5ro4CkiEmwJ0JB-16" vertex="1">
          <mxGeometry x="890.4100000000001" y="318.05999999999995" width="180" height="110" as="geometry" />
        </mxCell>
        <mxCell id="0EwmHbK1_g-h2IZMiYUe-47" value="- __play_state : Play" style="text;strokeColor=none;fillColor=none;align=left;verticalAlign=top;spacingLeft=4;spacingRight=4;overflow=hidden;rotatable=0;points=[[0,0.5],[1,0.5]];portConstraint=eastwest;whiteSpace=wrap;html=1;labelBackgroundColor=none;fontSize=14;" parent="0EwmHbK1_g-h2IZMiYUe-46" vertex="1">
          <mxGeometry y="26" width="180" height="26" as="geometry" />
        </mxCell>
        <mxCell id="0EwmHbK1_g-h2IZMiYUe-48" value="" style="line;strokeWidth=1;fillColor=none;align=left;verticalAlign=middle;spacingTop=-1;spacingLeft=3;spacingRight=3;rotatable=0;labelPosition=right;points=[];portConstraint=eastwest;labelBackgroundColor=none;fontSize=14;" parent="0EwmHbK1_g-h2IZMiYUe-46" vertex="1">
          <mxGeometry y="52" width="180" height="8" as="geometry" />
        </mxCell>
        <mxCell id="0EwmHbK1_g-h2IZMiYUe-49" value="&lt;div&gt;- __resume_game() : void&lt;/div&gt;&lt;div&gt;- __return_to_menu() : void&lt;/div&gt;" style="text;strokeColor=none;fillColor=none;align=left;verticalAlign=top;spacingLeft=4;spacingRight=4;overflow=hidden;rotatable=0;points=[[0,0.5],[1,0.5]];portConstraint=eastwest;whiteSpace=wrap;html=1;labelBackgroundColor=none;fontSize=14;" parent="0EwmHbK1_g-h2IZMiYUe-46" vertex="1">
          <mxGeometry y="60" width="180" height="50" as="geometry" />
        </mxCell>
        <mxCell id="Jew1sx4pPpGKJ6Vumhpc-43" value="Extends" style="endArrow=block;endSize=16;endFill=0;html=1;rounded=0;fillColor=#1ba1e2;strokeColor=#006EAF;exitX=-0.008;exitY=0.115;exitDx=0;exitDy=0;exitPerimeter=0;fontSize=14;" parent="MrbrfN5ro4CkiEmwJ0JB-16" source="0EwmHbK1_g-h2IZMiYUe-47" target="0EwmHbK1_g-h2IZMiYUe-25" edge="1">
          <mxGeometry width="160" relative="1" as="geometry">
            <mxPoint x="962.1700000000001" y="454" as="sourcePoint" />
            <mxPoint x="1122.17" y="454" as="targetPoint" />
          </mxGeometry>
        </mxCell>
        <mxCell id="Jew1sx4pPpGKJ6Vumhpc-61" value="" style="endArrow=open;endFill=1;endSize=12;html=1;rounded=0;fontSize=14;" parent="MrbrfN5ro4CkiEmwJ0JB-16" source="0EwmHbK1_g-h2IZMiYUe-46" target="0EwmHbK1_g-h2IZMiYUe-55" edge="1">
          <mxGeometry width="160" relative="1" as="geometry">
            <mxPoint x="467.17" y="390" as="sourcePoint" />
            <mxPoint x="627.1700000000001" y="390" as="targetPoint" />
          </mxGeometry>
        </mxCell>
        <mxCell id="Jew1sx4pPpGKJ6Vumhpc-59" value="" style="endArrow=open;endFill=1;endSize=12;html=1;rounded=0;fontSize=14;" parent="MrbrfN5ro4CkiEmwJ0JB-16" source="0EwmHbK1_g-h2IZMiYUe-42" target="0EwmHbK1_g-h2IZMiYUe-46" edge="1">
          <mxGeometry width="160" relative="1" as="geometry">
            <mxPoint x="467.17" y="390" as="sourcePoint" />
            <mxPoint x="627.1700000000001" y="390" as="targetPoint" />
          </mxGeometry>
        </mxCell>
        <mxCell id="0EwmHbK1_g-h2IZMiYUe-38" value="Menu" style="swimlane;fontStyle=1;align=center;verticalAlign=top;childLayout=stackLayout;horizontal=1;startSize=26;horizontalStack=0;resizeParent=1;resizeParentMax=0;resizeLast=0;collapsible=1;marginBottom=0;whiteSpace=wrap;html=1;labelBackgroundColor=none;fontSize=14;" parent="MrbrfN5ro4CkiEmwJ0JB-16" vertex="1">
          <mxGeometry x="441.41" y="658.06" width="310" height="110" as="geometry" />
        </mxCell>
        <mxCell id="0EwmHbK1_g-h2IZMiYUe-40" value="" style="line;strokeWidth=1;fillColor=none;align=left;verticalAlign=middle;spacingTop=-1;spacingLeft=3;spacingRight=3;rotatable=0;labelPosition=right;points=[];portConstraint=eastwest;labelBackgroundColor=none;fontSize=14;" parent="0EwmHbK1_g-h2IZMiYUe-38" vertex="1">
          <mxGeometry y="26" width="310" height="8" as="geometry" />
        </mxCell>
        <mxCell id="0EwmHbK1_g-h2IZMiYUe-41" value="&lt;div&gt;+ draw(screen : pygame.display) : void&amp;nbsp;&lt;/div&gt;&lt;div&gt;+ handle_events(events :&amp;nbsp;pygame.event&lt;span style=&quot;background-color: transparent; color: light-dark(rgb(0, 0, 0), rgb(255, 255, 255));&quot;&gt;) : void&lt;/span&gt;&lt;/div&gt;&lt;div&gt;&lt;span style=&quot;background-color: transparent; color: light-dark(rgb(0, 0, 0), rgb(255, 255, 255));&quot;&gt;-&amp;nbsp;&lt;/span&gt;&lt;span style=&quot;background-color: transparent;&quot;&gt;__start_from_beginning() : void&lt;/span&gt;&lt;/div&gt;&lt;div&gt;&lt;span style=&quot;background-color: transparent;&quot;&gt;-&amp;nbsp;&lt;/span&gt;&lt;span style=&quot;background-color: transparent;&quot;&gt;__start_from_save() : void&lt;/span&gt;&lt;/div&gt;" style="text;strokeColor=none;fillColor=none;align=left;verticalAlign=top;spacingLeft=4;spacingRight=4;overflow=hidden;rotatable=0;points=[[0,0.5],[1,0.5]];portConstraint=eastwest;whiteSpace=wrap;html=1;labelBackgroundColor=none;fontSize=14;" parent="0EwmHbK1_g-h2IZMiYUe-38" vertex="1">
          <mxGeometry y="34" width="310" height="76" as="geometry" />
        </mxCell>
        <mxCell id="Jew1sx4pPpGKJ6Vumhpc-52" value="" style="endArrow=open;endFill=1;endSize=12;html=1;rounded=0;entryX=-0.003;entryY=0.417;entryDx=0;entryDy=0;entryPerimeter=0;exitX=0.003;exitY=0.106;exitDx=0;exitDy=0;exitPerimeter=0;fontSize=14;" parent="MrbrfN5ro4CkiEmwJ0JB-16" edge="1" target="0EwmHbK1_g-h2IZMiYUe-45" source="0EwmHbK1_g-h2IZMiYUe-38">
          <mxGeometry width="160" relative="1" as="geometry">
            <mxPoint x="395.8333333333334" y="650" as="sourcePoint" />
            <mxPoint x="387.17" y="180" as="targetPoint" />
            <Array as="points">
              <mxPoint x="31.410000000000025" y="498.05999999999995" />
              <mxPoint x="31.410000000000025" y="328.05999999999995" />
            </Array>
          </mxGeometry>
        </mxCell>
        <mxCell id="Jew1sx4pPpGKJ6Vumhpc-54" value="" style="endArrow=open;endFill=1;endSize=12;html=1;rounded=0;fontSize=14;" parent="MrbrfN5ro4CkiEmwJ0JB-16" source="0EwmHbK1_g-h2IZMiYUe-38" target="0EwmHbK1_g-h2IZMiYUe-50" edge="1">
          <mxGeometry width="160" relative="1" as="geometry">
            <mxPoint x="247.17000000000002" y="350" as="sourcePoint" />
            <mxPoint x="407.17" y="350" as="targetPoint" />
          </mxGeometry>
        </mxCell>
        <mxCell id="Jew1sx4pPpGKJ6Vumhpc-62" value="" style="endArrow=open;endFill=1;endSize=12;html=1;rounded=0;fontSize=14;" parent="MrbrfN5ro4CkiEmwJ0JB-16" source="0EwmHbK1_g-h2IZMiYUe-59" target="0EwmHbK1_g-h2IZMiYUe-38" edge="1">
          <mxGeometry width="160" relative="1" as="geometry">
            <mxPoint x="467.17" y="390" as="sourcePoint" />
            <mxPoint x="627.1700000000001" y="390" as="targetPoint" />
            <Array as="points">
              <mxPoint x="1161.41" y="203.05999999999995" />
              <mxPoint x="1161.41" y="713.06" />
            </Array>
          </mxGeometry>
        </mxCell>
        <mxCell id="0EwmHbK1_g-h2IZMiYUe-150" value="Extends" style="endArrow=block;endSize=16;endFill=0;html=1;rounded=0;labelBackgroundColor=none;fontColor=default;fillColor=#1ba1e2;strokeColor=#006EAF;fontSize=14;" parent="MrbrfN5ro4CkiEmwJ0JB-16" source="0EwmHbK1_g-h2IZMiYUe-38" target="0EwmHbK1_g-h2IZMiYUe-25" edge="1">
          <mxGeometry width="160" relative="1" as="geometry">
            <mxPoint x="-497.83" y="1189.2399999999998" as="sourcePoint" />
            <mxPoint x="-337.83" y="1189.2399999999998" as="targetPoint" />
          </mxGeometry>
        </mxCell>
        <mxCell id="0EwmHbK1_g-h2IZMiYUe-9" value="Game" style="swimlane;fontStyle=1;align=center;verticalAlign=top;childLayout=stackLayout;horizontal=1;startSize=26;horizontalStack=0;resizeParent=1;resizeParentMax=0;resizeLast=0;collapsible=1;marginBottom=0;whiteSpace=wrap;html=1;labelBackgroundColor=none;fontSize=14;" parent="MrbrfN5ro4CkiEmwJ0JB-16" vertex="1">
          <mxGeometry x="306.41" y="836.06" width="580" height="124" as="geometry" />
        </mxCell>
        <mxCell id="0EwmHbK1_g-h2IZMiYUe-10" value="&lt;div&gt;- __dt : float&lt;/div&gt;&lt;div&gt;- __screen : pygame.display&lt;/div&gt;&lt;div&gt;- __current_state : Menu | CharacterSelect | Play | Pause | GameOver | SaveConfirmation&amp;nbsp;&lt;/div&gt;" style="text;strokeColor=none;fillColor=none;align=left;verticalAlign=top;spacingLeft=4;spacingRight=4;overflow=hidden;rotatable=0;points=[[0,0.5],[1,0.5]];portConstraint=eastwest;whiteSpace=wrap;html=1;labelBackgroundColor=none;fontSize=14;" parent="0EwmHbK1_g-h2IZMiYUe-9" vertex="1">
          <mxGeometry y="26" width="580" height="64" as="geometry" />
        </mxCell>
        <mxCell id="0EwmHbK1_g-h2IZMiYUe-11" value="" style="line;strokeWidth=1;fillColor=none;align=left;verticalAlign=middle;spacingTop=-1;spacingLeft=3;spacingRight=3;rotatable=0;labelPosition=right;points=[];portConstraint=eastwest;labelBackgroundColor=none;fontSize=14;" parent="0EwmHbK1_g-h2IZMiYUe-9" vertex="1">
          <mxGeometry y="90" width="580" height="8" as="geometry" />
        </mxCell>
        <mxCell id="0EwmHbK1_g-h2IZMiYUe-12" value="+ run(): void" style="text;strokeColor=none;fillColor=none;align=left;verticalAlign=top;spacingLeft=4;spacingRight=4;overflow=hidden;rotatable=0;points=[[0,0.5],[1,0.5]];portConstraint=eastwest;whiteSpace=wrap;html=1;labelBackgroundColor=none;fontSize=14;" parent="0EwmHbK1_g-h2IZMiYUe-9" vertex="1">
          <mxGeometry y="98" width="580" height="26" as="geometry" />
        </mxCell>
        <mxCell id="R___gokMjIJOq8RrT0xm-8" value="" style="endArrow=open;endFill=1;endSize=12;html=1;rounded=0;exitX=0.5;exitY=0;exitDx=0;exitDy=0;fontSize=14;" parent="MrbrfN5ro4CkiEmwJ0JB-16" source="0EwmHbK1_g-h2IZMiYUe-9" target="0EwmHbK1_g-h2IZMiYUe-38" edge="1">
          <mxGeometry width="160" relative="1" as="geometry">
            <mxPoint x="417.17" y="850" as="sourcePoint" />
            <mxPoint x="577.1700000000001" y="850" as="targetPoint" />
          </mxGeometry>
        </mxCell>
        <mxCell id="MrbrfN5ro4CkiEmwJ0JB-99" value="" style="endArrow=open;endFill=1;endSize=12;html=1;rounded=0;" edge="1" parent="MrbrfN5ro4CkiEmwJ0JB-16" source="0EwmHbK1_g-h2IZMiYUe-55" target="0EwmHbK1_g-h2IZMiYUe-38">
          <mxGeometry width="160" relative="1" as="geometry">
            <mxPoint x="321.41" y="498.05999999999995" as="sourcePoint" />
            <mxPoint x="481.41" y="498.05999999999995" as="targetPoint" />
          </mxGeometry>
        </mxCell>
        <mxCell id="0EwmHbK1_g-h2IZMiYUe-107" value="AbstractPlayer" style="swimlane;fontStyle=1;align=center;verticalAlign=top;childLayout=stackLayout;horizontal=1;startSize=26;horizontalStack=0;resizeParent=1;resizeParentMax=0;resizeLast=0;collapsible=1;marginBottom=0;whiteSpace=wrap;html=1;labelBackgroundColor=none;dashed=1;dashPattern=8 8;fontSize=14;" parent="MrbrfN5ro4CkiEmwJ0JB-87" vertex="1">
          <mxGeometry x="968.5899999999999" y="744" width="530" height="230" as="geometry" />
        </mxCell>
        <mxCell id="0EwmHbK1_g-h2IZMiYUe-108" value="&lt;div&gt;#_initial_health : int&lt;/div&gt;&lt;div&gt;#_health_points : int&lt;/div&gt;&lt;div&gt;#_ability_cooldown : int&lt;/div&gt;&lt;div&gt;#_ability_downtime : int&lt;/div&gt;&lt;div&gt;#_projectile_generator : ProjectileGenerator&lt;/div&gt;&lt;div&gt;-__ability_generator : LaserBeam|MissileBarrage|CriticalShot&lt;/div&gt;" style="text;strokeColor=none;fillColor=none;align=left;verticalAlign=top;spacingLeft=4;spacingRight=4;overflow=hidden;rotatable=0;points=[[0,0.5],[1,0.5]];portConstraint=eastwest;whiteSpace=wrap;html=1;labelBackgroundColor=none;fontSize=14;" parent="0EwmHbK1_g-h2IZMiYUe-107" vertex="1">
          <mxGeometry y="26" width="530" height="100" as="geometry" />
        </mxCell>
        <mxCell id="0EwmHbK1_g-h2IZMiYUe-109" value="" style="line;strokeWidth=1;fillColor=none;align=left;verticalAlign=middle;spacingTop=-1;spacingLeft=3;spacingRight=3;rotatable=0;labelPosition=right;points=[];portConstraint=eastwest;labelBackgroundColor=none;fontSize=14;" parent="0EwmHbK1_g-h2IZMiYUe-107" vertex="1">
          <mxGeometry y="126" width="530" height="8" as="geometry" />
        </mxCell>
        <mxCell id="0EwmHbK1_g-h2IZMiYUe-110" value="&lt;div&gt;+ update(terrain : Terrain, dt : float, player_projectiles : pygame.sprite.Group,&lt;span style=&quot;background-color: transparent; color: light-dark(rgb(0, 0, 0), rgb(255, 255, 255));&quot;&gt;&amp;nbsp;enemies_projectiles : pygame.sprite.Group, abilities : pygame.sprite.Group) : void&lt;/span&gt;&lt;/div&gt;&lt;div&gt;# _handle_input(terrain : Terrain, dt : float, projectiles : pygame.sprite.Group, abilities : pygame.sprite.Group): void&lt;/div&gt;&lt;div&gt;# _compute_damage(enemies_projectiles : pygame.sprite.Group): void&lt;/div&gt;&lt;div&gt;+ choose_ability() :&amp;nbsp;&lt;span style=&quot;background-color: transparent; color: light-dark(rgb(0, 0, 0), rgb(255, 255, 255));&quot;&gt;LaserBeam|MissileBarrage|CriticalShot&lt;/span&gt;&lt;/div&gt;" style="text;strokeColor=none;fillColor=none;align=left;verticalAlign=top;spacingLeft=4;spacingRight=4;overflow=hidden;rotatable=0;points=[[0,0.5],[1,0.5]];portConstraint=eastwest;whiteSpace=wrap;html=1;labelBackgroundColor=none;dashed=1;dashPattern=12 12;fontSize=14;" parent="0EwmHbK1_g-h2IZMiYUe-107" vertex="1">
          <mxGeometry y="134" width="530" height="96" as="geometry" />
        </mxCell>
        <mxCell id="MrbrfN5ro4CkiEmwJ0JB-72" value="" style="endArrow=diamondThin;endFill=1;endSize=24;html=1;rounded=0;fontSize=14;" edge="1" parent="MrbrfN5ro4CkiEmwJ0JB-87" source="0EwmHbK1_g-h2IZMiYUe-131" target="0EwmHbK1_g-h2IZMiYUe-42">
          <mxGeometry width="160" relative="1" as="geometry">
            <mxPoint x="489.59" y="797" as="sourcePoint" />
            <mxPoint x="710.5899999999999" y="1330" as="targetPoint" />
            <Array as="points">
              <mxPoint x="105" y="1390" />
              <mxPoint x="750" y="1390" />
            </Array>
          </mxGeometry>
        </mxCell>
        <mxCell id="MrbrfN5ro4CkiEmwJ0JB-74" value="&lt;font&gt;0..*&lt;/font&gt;" style="edgeLabel;html=1;align=center;verticalAlign=middle;resizable=0;points=[];fontSize=14;" connectable="0" vertex="1" parent="MrbrfN5ro4CkiEmwJ0JB-72">
          <mxGeometry x="-0.9594" y="2" relative="1" as="geometry">
            <mxPoint x="18" y="5" as="offset" />
          </mxGeometry>
        </mxCell>
        <mxCell id="MrbrfN5ro4CkiEmwJ0JB-88" value="&lt;font&gt;1&lt;/font&gt;" style="edgeLabel;html=1;align=center;verticalAlign=middle;resizable=0;points=[];fontSize=14;" vertex="1" connectable="0" parent="MrbrfN5ro4CkiEmwJ0JB-72">
          <mxGeometry x="0.9056" y="1" relative="1" as="geometry">
            <mxPoint x="-8" y="-14" as="offset" />
          </mxGeometry>
        </mxCell>
        <mxCell id="0EwmHbK1_g-h2IZMiYUe-123" value="BouncingEnemy" style="swimlane;fontStyle=1;align=center;verticalAlign=top;childLayout=stackLayout;horizontal=1;startSize=26;horizontalStack=0;resizeParent=1;resizeParentMax=0;resizeLast=0;collapsible=1;marginBottom=0;whiteSpace=wrap;html=1;labelBackgroundColor=none;fontSize=14;" parent="MrbrfN5ro4CkiEmwJ0JB-87" vertex="1">
          <mxGeometry x="580" y="1091" width="230" height="160" as="geometry" />
        </mxCell>
        <mxCell id="0EwmHbK1_g-h2IZMiYUe-124" value="- __state : str&lt;div&gt;- __timer : int&lt;/div&gt;&lt;div&gt;- __wait_timer : int&lt;/div&gt;&lt;div&gt;- __fall_timer : float&lt;/div&gt;&lt;div&gt;- __original_y : float&lt;/div&gt;" style="text;strokeColor=none;fillColor=none;align=left;verticalAlign=top;spacingLeft=4;spacingRight=4;overflow=hidden;rotatable=0;points=[[0,0.5],[1,0.5]];portConstraint=eastwest;whiteSpace=wrap;html=1;labelBackgroundColor=none;fontSize=14;" parent="0EwmHbK1_g-h2IZMiYUe-123" vertex="1">
          <mxGeometry y="26" width="230" height="94" as="geometry" />
        </mxCell>
        <mxCell id="0EwmHbK1_g-h2IZMiYUe-125" value="" style="line;strokeWidth=1;fillColor=none;align=left;verticalAlign=middle;spacingTop=-1;spacingLeft=3;spacingRight=3;rotatable=0;labelPosition=right;points=[];portConstraint=eastwest;labelBackgroundColor=none;fontSize=14;" parent="0EwmHbK1_g-h2IZMiYUe-123" vertex="1">
          <mxGeometry y="120" width="230" height="8" as="geometry" />
        </mxCell>
        <mxCell id="0EwmHbK1_g-h2IZMiYUe-126" value="- __update_behavior(dt:float) : void" style="text;strokeColor=none;fillColor=none;align=left;verticalAlign=top;spacingLeft=4;spacingRight=4;overflow=hidden;rotatable=0;points=[[0,0.5],[1,0.5]];portConstraint=eastwest;whiteSpace=wrap;html=1;labelBackgroundColor=none;fontSize=14;" parent="0EwmHbK1_g-h2IZMiYUe-123" vertex="1">
          <mxGeometry y="128" width="230" height="32" as="geometry" />
        </mxCell>
        <mxCell id="0EwmHbK1_g-h2IZMiYUe-115" value="Jones" style="swimlane;fontStyle=1;align=center;verticalAlign=top;childLayout=stackLayout;horizontal=1;startSize=26;horizontalStack=0;resizeParent=1;resizeParentMax=0;resizeLast=0;collapsible=1;marginBottom=0;whiteSpace=wrap;html=1;labelBackgroundColor=none;fontSize=14;" parent="MrbrfN5ro4CkiEmwJ0JB-87" vertex="1">
          <mxGeometry x="828.5899999999999" y="1091" width="260" height="130" as="geometry" />
        </mxCell>
        <mxCell id="0EwmHbK1_g-h2IZMiYUe-117" value="" style="line;strokeWidth=1;fillColor=none;align=left;verticalAlign=middle;spacingTop=-1;spacingLeft=3;spacingRight=3;rotatable=0;labelPosition=right;points=[];portConstraint=eastwest;labelBackgroundColor=none;fontSize=14;" parent="0EwmHbK1_g-h2IZMiYUe-115" vertex="1">
          <mxGeometry y="26" width="260" height="8" as="geometry" />
        </mxCell>
        <mxCell id="0EwmHbK1_g-h2IZMiYUe-118" value="+ choose_ability() :&amp;nbsp;&lt;span style=&quot;color: light-dark(rgb(0, 0, 0), rgb(255, 255, 255)); background-color: transparent;&quot;&gt;MissileBarrage&lt;/span&gt;&lt;div&gt;&lt;span style=&quot;background-color: transparent;&quot;&gt;&lt;div&gt;# _compute_cooldown_ability(dt : float) : void&lt;/div&gt;&lt;div&gt;# _compute_duration_ability(dt : float) : void&lt;/div&gt;&lt;div style=&quot;color: light-dark(rgb(0, 0, 0), rgb(255, 255, 255));&quot;&gt;&lt;br&gt;&lt;/div&gt;&lt;/span&gt;&lt;/div&gt;" style="text;strokeColor=none;fillColor=none;align=left;verticalAlign=top;spacingLeft=4;spacingRight=4;overflow=hidden;rotatable=0;points=[[0,0.5],[1,0.5]];portConstraint=eastwest;whiteSpace=wrap;html=1;labelBackgroundColor=none;fontSize=14;" parent="0EwmHbK1_g-h2IZMiYUe-115" vertex="1">
          <mxGeometry y="34" width="260" height="96" as="geometry" />
        </mxCell>
        <mxCell id="0EwmHbK1_g-h2IZMiYUe-87" value="AbstractProjectile" style="swimlane;fontStyle=1;align=center;verticalAlign=top;childLayout=stackLayout;horizontal=1;startSize=26;horizontalStack=0;resizeParent=1;resizeParentMax=0;resizeLast=0;collapsible=1;marginBottom=0;whiteSpace=wrap;html=1;labelBackgroundColor=none;dashed=1;dashPattern=8 8;fontSize=14;" parent="MrbrfN5ro4CkiEmwJ0JB-87" vertex="1">
          <mxGeometry x="307.88" y="20" width="411.41" height="180" as="geometry" />
        </mxCell>
        <mxCell id="0EwmHbK1_g-h2IZMiYUe-88" value="# _position : pygame.Vector2[int]&lt;div&gt;# _velocity : pygame.Vector2[int]&lt;/div&gt;&lt;div&gt;# _damage : int&lt;/div&gt;" style="text;strokeColor=none;fillColor=none;align=left;verticalAlign=top;spacingLeft=4;spacingRight=4;overflow=hidden;rotatable=0;points=[[0,0.5],[1,0.5]];portConstraint=eastwest;whiteSpace=wrap;html=1;labelBackgroundColor=none;fontSize=14;" parent="0EwmHbK1_g-h2IZMiYUe-87" vertex="1">
          <mxGeometry y="26" width="411.41" height="54" as="geometry" />
        </mxCell>
        <mxCell id="0EwmHbK1_g-h2IZMiYUe-89" value="" style="line;strokeWidth=1;fillColor=none;align=left;verticalAlign=middle;spacingTop=-1;spacingLeft=3;spacingRight=3;rotatable=0;labelPosition=right;points=[];portConstraint=eastwest;labelBackgroundColor=none;dashed=1;dashPattern=8 8;fontSize=14;" parent="0EwmHbK1_g-h2IZMiYUe-87" vertex="1">
          <mxGeometry y="80" width="411.41" height="8" as="geometry" />
        </mxCell>
        <mxCell id="0EwmHbK1_g-h2IZMiYUe-90" value="&lt;div&gt;+ update(dt : float, terrain : Terrain, player :&amp;nbsp; pygame.sprite.GroupSingle) : void&lt;/div&gt;&lt;div&gt;+ compute_collision(player : pygame.sprite.GroupSingle) : void&lt;/div&gt;&lt;div&gt;+ draw (screen : pygame.display) : void&lt;/div&gt;" style="text;strokeColor=none;fillColor=none;align=left;verticalAlign=top;spacingLeft=4;spacingRight=4;overflow=hidden;rotatable=0;points=[[0,0.5],[1,0.5]];portConstraint=eastwest;whiteSpace=wrap;html=1;labelBackgroundColor=none;fontSize=14;" parent="0EwmHbK1_g-h2IZMiYUe-87" vertex="1">
          <mxGeometry y="88" width="411.41" height="92" as="geometry" />
        </mxCell>
        <mxCell id="0EwmHbK1_g-h2IZMiYUe-91" value="BombProjectile" style="swimlane;fontStyle=1;align=center;verticalAlign=top;childLayout=stackLayout;horizontal=1;startSize=26;horizontalStack=0;resizeParent=1;resizeParentMax=0;resizeLast=0;collapsible=1;marginBottom=0;whiteSpace=wrap;html=1;labelBackgroundColor=none;fontSize=14;" parent="MrbrfN5ro4CkiEmwJ0JB-87" vertex="1">
          <mxGeometry x="9.999999999999744" y="330" width="410" height="150" as="geometry" />
        </mxCell>
        <mxCell id="0EwmHbK1_g-h2IZMiYUe-92" value="&lt;div&gt;- __explosion_radius : int&lt;/div&gt;&lt;div&gt;- __exploded : bool&lt;/div&gt;&lt;div&gt;- __explosion_time : int&lt;/div&gt;&lt;div&gt;- __explosion_duration : float&lt;/div&gt;" style="text;strokeColor=none;fillColor=none;align=left;verticalAlign=top;spacingLeft=4;spacingRight=4;overflow=hidden;rotatable=0;points=[[0,0.5],[1,0.5]];portConstraint=eastwest;whiteSpace=wrap;html=1;labelBackgroundColor=none;fontSize=14;" parent="0EwmHbK1_g-h2IZMiYUe-91" vertex="1">
          <mxGeometry y="26" width="410" height="74" as="geometry" />
        </mxCell>
        <mxCell id="0EwmHbK1_g-h2IZMiYUe-93" value="" style="line;strokeWidth=1;fillColor=none;align=left;verticalAlign=middle;spacingTop=-1;spacingLeft=3;spacingRight=3;rotatable=0;labelPosition=right;points=[];portConstraint=eastwest;labelBackgroundColor=none;fontSize=14;" parent="0EwmHbK1_g-h2IZMiYUe-91" vertex="1">
          <mxGeometry y="100" width="410" height="8" as="geometry" />
        </mxCell>
        <mxCell id="0EwmHbK1_g-h2IZMiYUe-94" value="- __trigger_explosion(player : pygame.sprite.GroupSingle) : void" style="text;strokeColor=none;fillColor=none;align=left;verticalAlign=top;spacingLeft=4;spacingRight=4;overflow=hidden;rotatable=0;points=[[0,0.5],[1,0.5]];portConstraint=eastwest;whiteSpace=wrap;html=1;labelBackgroundColor=none;fontSize=14;" parent="0EwmHbK1_g-h2IZMiYUe-91" vertex="1">
          <mxGeometry y="108" width="410" height="42" as="geometry" />
        </mxCell>
        <mxCell id="0EwmHbK1_g-h2IZMiYUe-95" value="NormalProjectile" style="swimlane;fontStyle=1;align=center;verticalAlign=top;childLayout=stackLayout;horizontal=1;startSize=26;horizontalStack=0;resizeParent=1;resizeParentMax=0;resizeLast=0;collapsible=1;marginBottom=0;whiteSpace=wrap;html=1;labelBackgroundColor=none;fontSize=14;" parent="MrbrfN5ro4CkiEmwJ0JB-87" vertex="1">
          <mxGeometry x="433.58999999999975" y="330" width="160" height="34" as="geometry" />
        </mxCell>
        <mxCell id="0EwmHbK1_g-h2IZMiYUe-97" value="" style="line;strokeWidth=1;fillColor=none;align=left;verticalAlign=middle;spacingTop=-1;spacingLeft=3;spacingRight=3;rotatable=0;labelPosition=right;points=[];portConstraint=eastwest;labelBackgroundColor=none;fontSize=14;" parent="0EwmHbK1_g-h2IZMiYUe-95" vertex="1">
          <mxGeometry y="26" width="160" height="8" as="geometry" />
        </mxCell>
        <mxCell id="0EwmHbK1_g-h2IZMiYUe-99" value="ProjectileAbility" style="swimlane;fontStyle=1;align=center;verticalAlign=top;childLayout=stackLayout;horizontal=1;startSize=26;horizontalStack=0;resizeParent=1;resizeParentMax=0;resizeLast=0;collapsible=1;marginBottom=0;whiteSpace=wrap;html=1;labelBackgroundColor=none;fontSize=14;" parent="MrbrfN5ro4CkiEmwJ0JB-87" vertex="1">
          <mxGeometry x="608.59" y="330" width="160" height="78" as="geometry" />
        </mxCell>
        <mxCell id="0EwmHbK1_g-h2IZMiYUe-100" value="&lt;div&gt;- __time_alive : int&lt;/div&gt;&lt;div&gt;- __lifetime : int&lt;/div&gt;" style="text;strokeColor=none;fillColor=none;align=left;verticalAlign=top;spacingLeft=4;spacingRight=4;overflow=hidden;rotatable=0;points=[[0,0.5],[1,0.5]];portConstraint=eastwest;whiteSpace=wrap;html=1;labelBackgroundColor=none;fontSize=14;" parent="0EwmHbK1_g-h2IZMiYUe-99" vertex="1">
          <mxGeometry y="26" width="160" height="44" as="geometry" />
        </mxCell>
        <mxCell id="0EwmHbK1_g-h2IZMiYUe-101" value="" style="line;strokeWidth=1;fillColor=none;align=left;verticalAlign=middle;spacingTop=-1;spacingLeft=3;spacingRight=3;rotatable=0;labelPosition=right;points=[];portConstraint=eastwest;labelBackgroundColor=none;fontSize=14;" parent="0EwmHbK1_g-h2IZMiYUe-99" vertex="1">
          <mxGeometry y="70" width="160" height="8" as="geometry" />
        </mxCell>
        <mxCell id="Jew1sx4pPpGKJ6Vumhpc-22" value="Extends" style="endArrow=block;endSize=16;endFill=0;html=1;rounded=0;fillColor=#1ba1e2;strokeColor=#006EAF;fontSize=14;" parent="MrbrfN5ro4CkiEmwJ0JB-87" source="0EwmHbK1_g-h2IZMiYUe-99" target="0EwmHbK1_g-h2IZMiYUe-87" edge="1">
          <mxGeometry width="160" relative="1" as="geometry">
            <mxPoint x="329.5399999999998" y="258" as="sourcePoint" />
            <mxPoint x="489.5399999999998" y="258" as="targetPoint" />
          </mxGeometry>
        </mxCell>
        <mxCell id="Jew1sx4pPpGKJ6Vumhpc-24" value="Extends" style="endArrow=block;endSize=16;endFill=0;html=1;rounded=0;fillColor=#1ba1e2;strokeColor=#006EAF;fontSize=14;" parent="MrbrfN5ro4CkiEmwJ0JB-87" source="0EwmHbK1_g-h2IZMiYUe-91" target="0EwmHbK1_g-h2IZMiYUe-87" edge="1">
          <mxGeometry width="160" relative="1" as="geometry">
            <mxPoint x="329.5399999999998" y="258" as="sourcePoint" />
            <mxPoint x="489.5399999999998" y="258" as="targetPoint" />
          </mxGeometry>
        </mxCell>
        <mxCell id="Jew1sx4pPpGKJ6Vumhpc-25" value="Extends" style="endArrow=block;endSize=16;endFill=0;html=1;rounded=0;fillColor=#1ba1e2;strokeColor=#006EAF;fontSize=14;" parent="MrbrfN5ro4CkiEmwJ0JB-87" source="0EwmHbK1_g-h2IZMiYUe-95" target="0EwmHbK1_g-h2IZMiYUe-87" edge="1">
          <mxGeometry width="160" relative="1" as="geometry">
            <mxPoint x="329.5399999999998" y="258" as="sourcePoint" />
            <mxPoint x="688.5399999999997" y="238" as="targetPoint" />
          </mxGeometry>
        </mxCell>
      </root>
    </mxGraphModel>
  </diagram>
</mxfile>
